%TF.GenerationSoftware,KiCad,Pcbnew,8.0.7*%
%TF.CreationDate,2024-12-27T18:42:03+05:30*%
%TF.ProjectId,Project 1 LED torch,50726f6a-6563-4742-9031-204c45442074,1*%
%TF.SameCoordinates,Original*%
%TF.FileFunction,Legend,Bot*%
%TF.FilePolarity,Positive*%
%FSLAX46Y46*%
G04 Gerber Fmt 4.6, Leading zero omitted, Abs format (unit mm)*
G04 Created by KiCad (PCBNEW 8.0.7) date 2024-12-27 18:42:03*
%MOMM*%
%LPD*%
G01*
G04 APERTURE LIST*
%ADD10C,0.100000*%
%ADD11C,0.010000*%
G04 APERTURE END LIST*
D10*
X159238972Y-108672419D02*
X158905639Y-109672419D01*
X158905639Y-109672419D02*
X158572306Y-108672419D01*
X157858020Y-109624800D02*
X157953258Y-109672419D01*
X157953258Y-109672419D02*
X158143734Y-109672419D01*
X158143734Y-109672419D02*
X158238972Y-109624800D01*
X158238972Y-109624800D02*
X158286591Y-109529561D01*
X158286591Y-109529561D02*
X158286591Y-109148609D01*
X158286591Y-109148609D02*
X158238972Y-109053371D01*
X158238972Y-109053371D02*
X158143734Y-109005752D01*
X158143734Y-109005752D02*
X157953258Y-109005752D01*
X157953258Y-109005752D02*
X157858020Y-109053371D01*
X157858020Y-109053371D02*
X157810401Y-109148609D01*
X157810401Y-109148609D02*
X157810401Y-109243847D01*
X157810401Y-109243847D02*
X158286591Y-109339085D01*
X157381829Y-109672419D02*
X157381829Y-109005752D01*
X157381829Y-109196228D02*
X157334210Y-109100990D01*
X157334210Y-109100990D02*
X157286591Y-109053371D01*
X157286591Y-109053371D02*
X157191353Y-109005752D01*
X157191353Y-109005752D02*
X157096115Y-109005752D01*
X156810400Y-109624800D02*
X156715162Y-109672419D01*
X156715162Y-109672419D02*
X156524686Y-109672419D01*
X156524686Y-109672419D02*
X156429448Y-109624800D01*
X156429448Y-109624800D02*
X156381829Y-109529561D01*
X156381829Y-109529561D02*
X156381829Y-109481942D01*
X156381829Y-109481942D02*
X156429448Y-109386704D01*
X156429448Y-109386704D02*
X156524686Y-109339085D01*
X156524686Y-109339085D02*
X156667543Y-109339085D01*
X156667543Y-109339085D02*
X156762781Y-109291466D01*
X156762781Y-109291466D02*
X156810400Y-109196228D01*
X156810400Y-109196228D02*
X156810400Y-109148609D01*
X156810400Y-109148609D02*
X156762781Y-109053371D01*
X156762781Y-109053371D02*
X156667543Y-109005752D01*
X156667543Y-109005752D02*
X156524686Y-109005752D01*
X156524686Y-109005752D02*
X156429448Y-109053371D01*
X155953257Y-109672419D02*
X155953257Y-109005752D01*
X155953257Y-108672419D02*
X156000876Y-108720038D01*
X156000876Y-108720038D02*
X155953257Y-108767657D01*
X155953257Y-108767657D02*
X155905638Y-108720038D01*
X155905638Y-108720038D02*
X155953257Y-108672419D01*
X155953257Y-108672419D02*
X155953257Y-108767657D01*
X155334210Y-109672419D02*
X155429448Y-109624800D01*
X155429448Y-109624800D02*
X155477067Y-109577180D01*
X155477067Y-109577180D02*
X155524686Y-109481942D01*
X155524686Y-109481942D02*
X155524686Y-109196228D01*
X155524686Y-109196228D02*
X155477067Y-109100990D01*
X155477067Y-109100990D02*
X155429448Y-109053371D01*
X155429448Y-109053371D02*
X155334210Y-109005752D01*
X155334210Y-109005752D02*
X155191353Y-109005752D01*
X155191353Y-109005752D02*
X155096115Y-109053371D01*
X155096115Y-109053371D02*
X155048496Y-109100990D01*
X155048496Y-109100990D02*
X155000877Y-109196228D01*
X155000877Y-109196228D02*
X155000877Y-109481942D01*
X155000877Y-109481942D02*
X155048496Y-109577180D01*
X155048496Y-109577180D02*
X155096115Y-109624800D01*
X155096115Y-109624800D02*
X155191353Y-109672419D01*
X155191353Y-109672419D02*
X155334210Y-109672419D01*
X154572305Y-109005752D02*
X154572305Y-109672419D01*
X154572305Y-109100990D02*
X154524686Y-109053371D01*
X154524686Y-109053371D02*
X154429448Y-109005752D01*
X154429448Y-109005752D02*
X154286591Y-109005752D01*
X154286591Y-109005752D02*
X154191353Y-109053371D01*
X154191353Y-109053371D02*
X154143734Y-109148609D01*
X154143734Y-109148609D02*
X154143734Y-109672419D01*
X152381829Y-109672419D02*
X152953257Y-109672419D01*
X152667543Y-109672419D02*
X152667543Y-108672419D01*
X152667543Y-108672419D02*
X152762781Y-108815276D01*
X152762781Y-108815276D02*
X152858019Y-108910514D01*
X152858019Y-108910514D02*
X152953257Y-108958133D01*
X151953257Y-109577180D02*
X151905638Y-109624800D01*
X151905638Y-109624800D02*
X151953257Y-109672419D01*
X151953257Y-109672419D02*
X152000876Y-109624800D01*
X152000876Y-109624800D02*
X151953257Y-109577180D01*
X151953257Y-109577180D02*
X151953257Y-109672419D01*
X151286591Y-108672419D02*
X151191353Y-108672419D01*
X151191353Y-108672419D02*
X151096115Y-108720038D01*
X151096115Y-108720038D02*
X151048496Y-108767657D01*
X151048496Y-108767657D02*
X151000877Y-108862895D01*
X151000877Y-108862895D02*
X150953258Y-109053371D01*
X150953258Y-109053371D02*
X150953258Y-109291466D01*
X150953258Y-109291466D02*
X151000877Y-109481942D01*
X151000877Y-109481942D02*
X151048496Y-109577180D01*
X151048496Y-109577180D02*
X151096115Y-109624800D01*
X151096115Y-109624800D02*
X151191353Y-109672419D01*
X151191353Y-109672419D02*
X151286591Y-109672419D01*
X151286591Y-109672419D02*
X151381829Y-109624800D01*
X151381829Y-109624800D02*
X151429448Y-109577180D01*
X151429448Y-109577180D02*
X151477067Y-109481942D01*
X151477067Y-109481942D02*
X151524686Y-109291466D01*
X151524686Y-109291466D02*
X151524686Y-109053371D01*
X151524686Y-109053371D02*
X151477067Y-108862895D01*
X151477067Y-108862895D02*
X151429448Y-108767657D01*
X151429448Y-108767657D02*
X151381829Y-108720038D01*
X151381829Y-108720038D02*
X151286591Y-108672419D01*
D11*
%TO.C,REF\u002A\u002A*%
X150655406Y-107234949D02*
X150681127Y-107250647D01*
X150707778Y-107272227D01*
X150707778Y-107919684D01*
X150681127Y-107941264D01*
X150649767Y-107958739D01*
X150613966Y-107959575D01*
X150582528Y-107939082D01*
X150578652Y-107934416D01*
X150573186Y-107924949D01*
X150568979Y-107911267D01*
X150565867Y-107890748D01*
X150563687Y-107860768D01*
X150562276Y-107818704D01*
X150561471Y-107761932D01*
X150561107Y-107687830D01*
X150561022Y-107593773D01*
X150561022Y-107272227D01*
X150587673Y-107250647D01*
X150611386Y-107235877D01*
X150634400Y-107229067D01*
X150655406Y-107234949D01*
G36*
X150655406Y-107234949D02*
G01*
X150681127Y-107250647D01*
X150707778Y-107272227D01*
X150707778Y-107919684D01*
X150681127Y-107941264D01*
X150649767Y-107958739D01*
X150613966Y-107959575D01*
X150582528Y-107939082D01*
X150578652Y-107934416D01*
X150573186Y-107924949D01*
X150568979Y-107911267D01*
X150565867Y-107890748D01*
X150563687Y-107860768D01*
X150562276Y-107818704D01*
X150561471Y-107761932D01*
X150561107Y-107687830D01*
X150561022Y-107593773D01*
X150561022Y-107272227D01*
X150587673Y-107250647D01*
X150611386Y-107235877D01*
X150634400Y-107229067D01*
X150655406Y-107234949D01*
G37*
X157786137Y-107233463D02*
X157820291Y-107256776D01*
X157848000Y-107284485D01*
X157848000Y-107597537D01*
X157847959Y-107681567D01*
X157847701Y-107755789D01*
X157847030Y-107812541D01*
X157845752Y-107854512D01*
X157843673Y-107884389D01*
X157840599Y-107904861D01*
X157836334Y-107918614D01*
X157830684Y-107928337D01*
X157823455Y-107936717D01*
X157791991Y-107958181D01*
X157756826Y-107959947D01*
X157723822Y-107940267D01*
X157718516Y-107934398D01*
X157713066Y-107925314D01*
X157708900Y-107911973D01*
X157705846Y-107891757D01*
X157703732Y-107862049D01*
X157702386Y-107820232D01*
X157701638Y-107763689D01*
X157701314Y-107689802D01*
X157701245Y-107595956D01*
X157701284Y-107520294D01*
X157701539Y-107442385D01*
X157702183Y-107382375D01*
X157703387Y-107337648D01*
X157705324Y-107305585D01*
X157708164Y-107283571D01*
X157712079Y-107268987D01*
X157717242Y-107259218D01*
X157723822Y-107251645D01*
X157753006Y-107232623D01*
X157786137Y-107233463D01*
G36*
X157786137Y-107233463D02*
G01*
X157820291Y-107256776D01*
X157848000Y-107284485D01*
X157848000Y-107597537D01*
X157847959Y-107681567D01*
X157847701Y-107755789D01*
X157847030Y-107812541D01*
X157845752Y-107854512D01*
X157843673Y-107884389D01*
X157840599Y-107904861D01*
X157836334Y-107918614D01*
X157830684Y-107928337D01*
X157823455Y-107936717D01*
X157791991Y-107958181D01*
X157756826Y-107959947D01*
X157723822Y-107940267D01*
X157718516Y-107934398D01*
X157713066Y-107925314D01*
X157708900Y-107911973D01*
X157705846Y-107891757D01*
X157703732Y-107862049D01*
X157702386Y-107820232D01*
X157701638Y-107763689D01*
X157701314Y-107689802D01*
X157701245Y-107595956D01*
X157701284Y-107520294D01*
X157701539Y-107442385D01*
X157702183Y-107382375D01*
X157703387Y-107337648D01*
X157705324Y-107305585D01*
X157708164Y-107283571D01*
X157712079Y-107268987D01*
X157717242Y-107259218D01*
X157723822Y-107251645D01*
X157753006Y-107232623D01*
X157786137Y-107233463D01*
G37*
X157254562Y-101992850D02*
X157337313Y-102020053D01*
X157412406Y-102065484D01*
X157484298Y-102131302D01*
X157522846Y-102175567D01*
X157562256Y-102233961D01*
X157587446Y-102294586D01*
X157600861Y-102363865D01*
X157604948Y-102448222D01*
X157604669Y-102494307D01*
X157602460Y-102535450D01*
X157596894Y-102567582D01*
X157586586Y-102598122D01*
X157570148Y-102634489D01*
X157556200Y-102661728D01*
X157497665Y-102747429D01*
X157425619Y-102816617D01*
X157341947Y-102867741D01*
X157248531Y-102899250D01*
X157215434Y-102906225D01*
X157174960Y-102913094D01*
X157141999Y-102914919D01*
X157107698Y-102911947D01*
X157063200Y-102904426D01*
X157011934Y-102892002D01*
X156921434Y-102854112D01*
X156842345Y-102799836D01*
X156776528Y-102731770D01*
X156725840Y-102652511D01*
X156692140Y-102564654D01*
X156677286Y-102470795D01*
X156683136Y-102373530D01*
X156709399Y-102277220D01*
X156754418Y-102188494D01*
X156815373Y-102113419D01*
X156890184Y-102053641D01*
X156976768Y-102010809D01*
X157073043Y-101986571D01*
X157176928Y-101982576D01*
X157254562Y-101992850D01*
G36*
X157254562Y-101992850D02*
G01*
X157337313Y-102020053D01*
X157412406Y-102065484D01*
X157484298Y-102131302D01*
X157522846Y-102175567D01*
X157562256Y-102233961D01*
X157587446Y-102294586D01*
X157600861Y-102363865D01*
X157604948Y-102448222D01*
X157604669Y-102494307D01*
X157602460Y-102535450D01*
X157596894Y-102567582D01*
X157586586Y-102598122D01*
X157570148Y-102634489D01*
X157556200Y-102661728D01*
X157497665Y-102747429D01*
X157425619Y-102816617D01*
X157341947Y-102867741D01*
X157248531Y-102899250D01*
X157215434Y-102906225D01*
X157174960Y-102913094D01*
X157141999Y-102914919D01*
X157107698Y-102911947D01*
X157063200Y-102904426D01*
X157011934Y-102892002D01*
X156921434Y-102854112D01*
X156842345Y-102799836D01*
X156776528Y-102731770D01*
X156725840Y-102652511D01*
X156692140Y-102564654D01*
X156677286Y-102470795D01*
X156683136Y-102373530D01*
X156709399Y-102277220D01*
X156754418Y-102188494D01*
X156815373Y-102113419D01*
X156890184Y-102053641D01*
X156976768Y-102010809D01*
X157073043Y-101986571D01*
X157176928Y-101982576D01*
X157254562Y-101992850D01*
G37*
X149955767Y-107229068D02*
X150049890Y-107229158D01*
X150124405Y-107229498D01*
X150181811Y-107230239D01*
X150224611Y-107231535D01*
X150255304Y-107233537D01*
X150276391Y-107236396D01*
X150290373Y-107240266D01*
X150299750Y-107245298D01*
X150307022Y-107251645D01*
X150325828Y-107284362D01*
X150327275Y-107321939D01*
X150310917Y-107355178D01*
X150309557Y-107356631D01*
X150298354Y-107364992D01*
X150281252Y-107370547D01*
X150254082Y-107373840D01*
X150212678Y-107375418D01*
X150152873Y-107375822D01*
X150013511Y-107375822D01*
X150013511Y-107639589D01*
X150013436Y-107715417D01*
X150013028Y-107782083D01*
X150012046Y-107831867D01*
X150010250Y-107867784D01*
X150007399Y-107892850D01*
X150003253Y-107910081D01*
X149997571Y-107922492D01*
X149990114Y-107933100D01*
X149987824Y-107935906D01*
X149956646Y-107958548D01*
X149922266Y-107960112D01*
X149889334Y-107940267D01*
X149882355Y-107932191D01*
X149876883Y-107921593D01*
X149872863Y-107905749D01*
X149870072Y-107881773D01*
X149868288Y-107846774D01*
X149867289Y-107797864D01*
X149866852Y-107732154D01*
X149866756Y-107646756D01*
X149866756Y-107375822D01*
X149720820Y-107375822D01*
X149709720Y-107375821D01*
X149653202Y-107375596D01*
X149614358Y-107374457D01*
X149588965Y-107371657D01*
X149572804Y-107366450D01*
X149561652Y-107358089D01*
X149551289Y-107345826D01*
X149535441Y-107315138D01*
X149538543Y-107281358D01*
X149564187Y-107248822D01*
X149569129Y-107245105D01*
X149579338Y-107240269D01*
X149594764Y-107236506D01*
X149617886Y-107233683D01*
X149651183Y-107231670D01*
X149697137Y-107230333D01*
X149758228Y-107229542D01*
X149836935Y-107229163D01*
X149935740Y-107229067D01*
X149955767Y-107229068D01*
G36*
X149955767Y-107229068D02*
G01*
X150049890Y-107229158D01*
X150124405Y-107229498D01*
X150181811Y-107230239D01*
X150224611Y-107231535D01*
X150255304Y-107233537D01*
X150276391Y-107236396D01*
X150290373Y-107240266D01*
X150299750Y-107245298D01*
X150307022Y-107251645D01*
X150325828Y-107284362D01*
X150327275Y-107321939D01*
X150310917Y-107355178D01*
X150309557Y-107356631D01*
X150298354Y-107364992D01*
X150281252Y-107370547D01*
X150254082Y-107373840D01*
X150212678Y-107375418D01*
X150152873Y-107375822D01*
X150013511Y-107375822D01*
X150013511Y-107639589D01*
X150013436Y-107715417D01*
X150013028Y-107782083D01*
X150012046Y-107831867D01*
X150010250Y-107867784D01*
X150007399Y-107892850D01*
X150003253Y-107910081D01*
X149997571Y-107922492D01*
X149990114Y-107933100D01*
X149987824Y-107935906D01*
X149956646Y-107958548D01*
X149922266Y-107960112D01*
X149889334Y-107940267D01*
X149882355Y-107932191D01*
X149876883Y-107921593D01*
X149872863Y-107905749D01*
X149870072Y-107881773D01*
X149868288Y-107846774D01*
X149867289Y-107797864D01*
X149866852Y-107732154D01*
X149866756Y-107646756D01*
X149866756Y-107375822D01*
X149720820Y-107375822D01*
X149709720Y-107375821D01*
X149653202Y-107375596D01*
X149614358Y-107374457D01*
X149588965Y-107371657D01*
X149572804Y-107366450D01*
X149561652Y-107358089D01*
X149551289Y-107345826D01*
X149535441Y-107315138D01*
X149538543Y-107281358D01*
X149564187Y-107248822D01*
X149569129Y-107245105D01*
X149579338Y-107240269D01*
X149594764Y-107236506D01*
X149617886Y-107233683D01*
X149651183Y-107231670D01*
X149697137Y-107230333D01*
X149758228Y-107229542D01*
X149836935Y-107229163D01*
X149935740Y-107229067D01*
X149955767Y-107229068D01*
G37*
X149279734Y-107251645D02*
X149285366Y-107257835D01*
X149290456Y-107266041D01*
X149294543Y-107277817D01*
X149297721Y-107295276D01*
X149300087Y-107320530D01*
X149301738Y-107355690D01*
X149302769Y-107402869D01*
X149303277Y-107464177D01*
X149303359Y-107541727D01*
X149303109Y-107637631D01*
X149302625Y-107754000D01*
X149302557Y-107768175D01*
X149301971Y-107829937D01*
X149300648Y-107873620D01*
X149298103Y-107903001D01*
X149293848Y-107921855D01*
X149287396Y-107933959D01*
X149278262Y-107943089D01*
X149244804Y-107960506D01*
X149209856Y-107957604D01*
X149178953Y-107933100D01*
X149169944Y-107919897D01*
X149162492Y-107901361D01*
X149158124Y-107875333D01*
X149156069Y-107836787D01*
X149155556Y-107780700D01*
X149155556Y-107658045D01*
X148658845Y-107658045D01*
X148658845Y-107792871D01*
X148658772Y-107828662D01*
X148658009Y-107874992D01*
X148655833Y-107905526D01*
X148651536Y-107924557D01*
X148644412Y-107936374D01*
X148633755Y-107945271D01*
X148601504Y-107960341D01*
X148566217Y-107957673D01*
X148535486Y-107933100D01*
X148530831Y-107926845D01*
X148524895Y-107916321D01*
X148520364Y-107902391D01*
X148517048Y-107882317D01*
X148514759Y-107853360D01*
X148513308Y-107812780D01*
X148512505Y-107757840D01*
X148512162Y-107685799D01*
X148512089Y-107593920D01*
X148512089Y-107284485D01*
X148539798Y-107256776D01*
X148571177Y-107234533D01*
X148604406Y-107231844D01*
X148636267Y-107251645D01*
X148644553Y-107261415D01*
X148651965Y-107277307D01*
X148656302Y-107301275D01*
X148658338Y-107338148D01*
X148658845Y-107392756D01*
X148658845Y-107511289D01*
X149155556Y-107511289D01*
X149155556Y-107395776D01*
X149155994Y-107344078D01*
X149157958Y-107309554D01*
X149162474Y-107286978D01*
X149170567Y-107271126D01*
X149183265Y-107256776D01*
X149214643Y-107234533D01*
X149247872Y-107231844D01*
X149279734Y-107251645D01*
G36*
X149279734Y-107251645D02*
G01*
X149285366Y-107257835D01*
X149290456Y-107266041D01*
X149294543Y-107277817D01*
X149297721Y-107295276D01*
X149300087Y-107320530D01*
X149301738Y-107355690D01*
X149302769Y-107402869D01*
X149303277Y-107464177D01*
X149303359Y-107541727D01*
X149303109Y-107637631D01*
X149302625Y-107754000D01*
X149302557Y-107768175D01*
X149301971Y-107829937D01*
X149300648Y-107873620D01*
X149298103Y-107903001D01*
X149293848Y-107921855D01*
X149287396Y-107933959D01*
X149278262Y-107943089D01*
X149244804Y-107960506D01*
X149209856Y-107957604D01*
X149178953Y-107933100D01*
X149169944Y-107919897D01*
X149162492Y-107901361D01*
X149158124Y-107875333D01*
X149156069Y-107836787D01*
X149155556Y-107780700D01*
X149155556Y-107658045D01*
X148658845Y-107658045D01*
X148658845Y-107792871D01*
X148658772Y-107828662D01*
X148658009Y-107874992D01*
X148655833Y-107905526D01*
X148651536Y-107924557D01*
X148644412Y-107936374D01*
X148633755Y-107945271D01*
X148601504Y-107960341D01*
X148566217Y-107957673D01*
X148535486Y-107933100D01*
X148530831Y-107926845D01*
X148524895Y-107916321D01*
X148520364Y-107902391D01*
X148517048Y-107882317D01*
X148514759Y-107853360D01*
X148513308Y-107812780D01*
X148512505Y-107757840D01*
X148512162Y-107685799D01*
X148512089Y-107593920D01*
X148512089Y-107284485D01*
X148539798Y-107256776D01*
X148571177Y-107234533D01*
X148604406Y-107231844D01*
X148636267Y-107251645D01*
X148644553Y-107261415D01*
X148651965Y-107277307D01*
X148656302Y-107301275D01*
X148658338Y-107338148D01*
X148658845Y-107392756D01*
X148658845Y-107511289D01*
X149155556Y-107511289D01*
X149155556Y-107395776D01*
X149155994Y-107344078D01*
X149157958Y-107309554D01*
X149162474Y-107286978D01*
X149170567Y-107271126D01*
X149183265Y-107256776D01*
X149214643Y-107234533D01*
X149247872Y-107231844D01*
X149279734Y-107251645D01*
G37*
X153985133Y-107840396D02*
X153983163Y-107873175D01*
X153980235Y-107896095D01*
X153976158Y-107911897D01*
X153970743Y-107923319D01*
X153963803Y-107933100D01*
X153940406Y-107962845D01*
X153774714Y-107962251D01*
X153739918Y-107961953D01*
X153641435Y-107958522D01*
X153560473Y-107950839D01*
X153493379Y-107938282D01*
X153436496Y-107920227D01*
X153386169Y-107896052D01*
X153382810Y-107894135D01*
X153324998Y-107857417D01*
X153282644Y-107820451D01*
X153249828Y-107776966D01*
X153220628Y-107720689D01*
X153216346Y-107711073D01*
X153193769Y-107647887D01*
X153188034Y-107602333D01*
X153337279Y-107602333D01*
X153342892Y-107627061D01*
X153348618Y-107642939D01*
X153381548Y-107702847D01*
X153428886Y-107748600D01*
X153492652Y-107781736D01*
X153574861Y-107803790D01*
X153577655Y-107804292D01*
X153623940Y-107810255D01*
X153680336Y-107814483D01*
X153735274Y-107816089D01*
X153829156Y-107816089D01*
X153829156Y-107375822D01*
X153741667Y-107376270D01*
X153674747Y-107378746D01*
X153582349Y-107389998D01*
X153503034Y-107409537D01*
X153441060Y-107436511D01*
X153410120Y-107457240D01*
X153382000Y-107487006D01*
X153358660Y-107529434D01*
X153351533Y-107545400D01*
X153339709Y-107577902D01*
X153337279Y-107602333D01*
X153188034Y-107602333D01*
X153186797Y-107592509D01*
X153195399Y-107537483D01*
X153219541Y-107475351D01*
X153220337Y-107473658D01*
X153260788Y-107404236D01*
X153311473Y-107347638D01*
X153374198Y-107303070D01*
X153450774Y-107269741D01*
X153543009Y-107246861D01*
X153652712Y-107233636D01*
X153781691Y-107229275D01*
X153785263Y-107229270D01*
X153845283Y-107229410D01*
X153887214Y-107230446D01*
X153915328Y-107233040D01*
X153933897Y-107237853D01*
X153947194Y-107245544D01*
X153959491Y-107256776D01*
X153987200Y-107284485D01*
X153987200Y-107593920D01*
X153987175Y-107655526D01*
X153986950Y-107734311D01*
X153986332Y-107795021D01*
X153985775Y-107816089D01*
X153985133Y-107840396D01*
G36*
X153985133Y-107840396D02*
G01*
X153983163Y-107873175D01*
X153980235Y-107896095D01*
X153976158Y-107911897D01*
X153970743Y-107923319D01*
X153963803Y-107933100D01*
X153940406Y-107962845D01*
X153774714Y-107962251D01*
X153739918Y-107961953D01*
X153641435Y-107958522D01*
X153560473Y-107950839D01*
X153493379Y-107938282D01*
X153436496Y-107920227D01*
X153386169Y-107896052D01*
X153382810Y-107894135D01*
X153324998Y-107857417D01*
X153282644Y-107820451D01*
X153249828Y-107776966D01*
X153220628Y-107720689D01*
X153216346Y-107711073D01*
X153193769Y-107647887D01*
X153188034Y-107602333D01*
X153337279Y-107602333D01*
X153342892Y-107627061D01*
X153348618Y-107642939D01*
X153381548Y-107702847D01*
X153428886Y-107748600D01*
X153492652Y-107781736D01*
X153574861Y-107803790D01*
X153577655Y-107804292D01*
X153623940Y-107810255D01*
X153680336Y-107814483D01*
X153735274Y-107816089D01*
X153829156Y-107816089D01*
X153829156Y-107375822D01*
X153741667Y-107376270D01*
X153674747Y-107378746D01*
X153582349Y-107389998D01*
X153503034Y-107409537D01*
X153441060Y-107436511D01*
X153410120Y-107457240D01*
X153382000Y-107487006D01*
X153358660Y-107529434D01*
X153351533Y-107545400D01*
X153339709Y-107577902D01*
X153337279Y-107602333D01*
X153188034Y-107602333D01*
X153186797Y-107592509D01*
X153195399Y-107537483D01*
X153219541Y-107475351D01*
X153220337Y-107473658D01*
X153260788Y-107404236D01*
X153311473Y-107347638D01*
X153374198Y-107303070D01*
X153450774Y-107269741D01*
X153543009Y-107246861D01*
X153652712Y-107233636D01*
X153781691Y-107229275D01*
X153785263Y-107229270D01*
X153845283Y-107229410D01*
X153887214Y-107230446D01*
X153915328Y-107233040D01*
X153933897Y-107237853D01*
X153947194Y-107245544D01*
X153959491Y-107256776D01*
X153987200Y-107284485D01*
X153987200Y-107593920D01*
X153987175Y-107655526D01*
X153986950Y-107734311D01*
X153986332Y-107795021D01*
X153985775Y-107816089D01*
X153985133Y-107840396D01*
G37*
X161076817Y-107414427D02*
X161076870Y-107495041D01*
X161076622Y-107595956D01*
X161076583Y-107671617D01*
X161076328Y-107749526D01*
X161075684Y-107809536D01*
X161074480Y-107854264D01*
X161072543Y-107886326D01*
X161069703Y-107908340D01*
X161065788Y-107922924D01*
X161060626Y-107932694D01*
X161054045Y-107940267D01*
X161047077Y-107946501D01*
X161034079Y-107953801D01*
X161014931Y-107958554D01*
X160985528Y-107961292D01*
X160941762Y-107962545D01*
X160879528Y-107962845D01*
X160830582Y-107962469D01*
X160723722Y-107958041D01*
X160634494Y-107947953D01*
X160559696Y-107931365D01*
X160496125Y-107907435D01*
X160440579Y-107875321D01*
X160389854Y-107834182D01*
X160383866Y-107828330D01*
X160346999Y-107779821D01*
X160315899Y-107719013D01*
X160294417Y-107654769D01*
X160289136Y-107616026D01*
X160436353Y-107616026D01*
X160454635Y-107666961D01*
X160484305Y-107712878D01*
X160531002Y-107755287D01*
X160592392Y-107785090D01*
X160671538Y-107804226D01*
X160673028Y-107804464D01*
X160721999Y-107810256D01*
X160780693Y-107814396D01*
X160836734Y-107816004D01*
X160929867Y-107816089D01*
X160929867Y-107375822D01*
X160853667Y-107375808D01*
X160850639Y-107375817D01*
X160799519Y-107377782D01*
X160739416Y-107382507D01*
X160682708Y-107389035D01*
X160632750Y-107398331D01*
X160557998Y-107424600D01*
X160500489Y-107463899D01*
X160458988Y-107516933D01*
X160437771Y-107568200D01*
X160436353Y-107616026D01*
X160289136Y-107616026D01*
X160286400Y-107595956D01*
X160287679Y-107574739D01*
X160299991Y-107517323D01*
X160322520Y-107457413D01*
X160351750Y-107403363D01*
X160384167Y-107363532D01*
X160403708Y-107346510D01*
X160458420Y-107307322D01*
X160518723Y-107277193D01*
X160587919Y-107255232D01*
X160669311Y-107240550D01*
X160766200Y-107232259D01*
X160881889Y-107229467D01*
X160921371Y-107229066D01*
X160967082Y-107228653D01*
X161002883Y-107230457D01*
X161029974Y-107236739D01*
X161049556Y-107249759D01*
X161062830Y-107271778D01*
X161070998Y-107305055D01*
X161075260Y-107351851D01*
X161075857Y-107375822D01*
X161076817Y-107414427D01*
G36*
X161076817Y-107414427D02*
G01*
X161076870Y-107495041D01*
X161076622Y-107595956D01*
X161076583Y-107671617D01*
X161076328Y-107749526D01*
X161075684Y-107809536D01*
X161074480Y-107854264D01*
X161072543Y-107886326D01*
X161069703Y-107908340D01*
X161065788Y-107922924D01*
X161060626Y-107932694D01*
X161054045Y-107940267D01*
X161047077Y-107946501D01*
X161034079Y-107953801D01*
X161014931Y-107958554D01*
X160985528Y-107961292D01*
X160941762Y-107962545D01*
X160879528Y-107962845D01*
X160830582Y-107962469D01*
X160723722Y-107958041D01*
X160634494Y-107947953D01*
X160559696Y-107931365D01*
X160496125Y-107907435D01*
X160440579Y-107875321D01*
X160389854Y-107834182D01*
X160383866Y-107828330D01*
X160346999Y-107779821D01*
X160315899Y-107719013D01*
X160294417Y-107654769D01*
X160289136Y-107616026D01*
X160436353Y-107616026D01*
X160454635Y-107666961D01*
X160484305Y-107712878D01*
X160531002Y-107755287D01*
X160592392Y-107785090D01*
X160671538Y-107804226D01*
X160673028Y-107804464D01*
X160721999Y-107810256D01*
X160780693Y-107814396D01*
X160836734Y-107816004D01*
X160929867Y-107816089D01*
X160929867Y-107375822D01*
X160853667Y-107375808D01*
X160850639Y-107375817D01*
X160799519Y-107377782D01*
X160739416Y-107382507D01*
X160682708Y-107389035D01*
X160632750Y-107398331D01*
X160557998Y-107424600D01*
X160500489Y-107463899D01*
X160458988Y-107516933D01*
X160437771Y-107568200D01*
X160436353Y-107616026D01*
X160289136Y-107616026D01*
X160286400Y-107595956D01*
X160287679Y-107574739D01*
X160299991Y-107517323D01*
X160322520Y-107457413D01*
X160351750Y-107403363D01*
X160384167Y-107363532D01*
X160403708Y-107346510D01*
X160458420Y-107307322D01*
X160518723Y-107277193D01*
X160587919Y-107255232D01*
X160669311Y-107240550D01*
X160766200Y-107232259D01*
X160881889Y-107229467D01*
X160921371Y-107229066D01*
X160967082Y-107228653D01*
X161002883Y-107230457D01*
X161029974Y-107236739D01*
X161049556Y-107249759D01*
X161062830Y-107271778D01*
X161070998Y-107305055D01*
X161075260Y-107351851D01*
X161075857Y-107375822D01*
X161076817Y-107414427D01*
G37*
X156131893Y-107227892D02*
X156143301Y-107234029D01*
X156153850Y-107244691D01*
X156165136Y-107258811D01*
X156169589Y-107264772D01*
X156175588Y-107275268D01*
X156180167Y-107289093D01*
X156183519Y-107308998D01*
X156185833Y-107337732D01*
X156187301Y-107378045D01*
X156188113Y-107432687D01*
X156188460Y-107504407D01*
X156188534Y-107595956D01*
X156188511Y-107654486D01*
X156188292Y-107733573D01*
X156187683Y-107794516D01*
X156186492Y-107840062D01*
X156184529Y-107872963D01*
X156181603Y-107895968D01*
X156177523Y-107911826D01*
X156172097Y-107923286D01*
X156165136Y-107933100D01*
X156134708Y-107957493D01*
X156099765Y-107960372D01*
X156062784Y-107941282D01*
X156058600Y-107937807D01*
X156050424Y-107929279D01*
X156044364Y-107917728D01*
X156039981Y-107899896D01*
X156036839Y-107872524D01*
X156034502Y-107832354D01*
X156032531Y-107776128D01*
X156030489Y-107700589D01*
X156024845Y-107481458D01*
X155759556Y-107722099D01*
X155685722Y-107788875D01*
X155620542Y-107846991D01*
X155568348Y-107891949D01*
X155527273Y-107924871D01*
X155495455Y-107946879D01*
X155471026Y-107959094D01*
X155452124Y-107962639D01*
X155436883Y-107958636D01*
X155423439Y-107948207D01*
X155409927Y-107932474D01*
X155403682Y-107923991D01*
X155398050Y-107913413D01*
X155393839Y-107899255D01*
X155390887Y-107878803D01*
X155389032Y-107849342D01*
X155388113Y-107808161D01*
X155387968Y-107752544D01*
X155388435Y-107679779D01*
X155389352Y-107587151D01*
X155392667Y-107272199D01*
X155419318Y-107250633D01*
X155445383Y-107234441D01*
X155478241Y-107231670D01*
X155512772Y-107250623D01*
X155517084Y-107254208D01*
X155525216Y-107262737D01*
X155531245Y-107274329D01*
X155535606Y-107292235D01*
X155538734Y-107319706D01*
X155541063Y-107359994D01*
X155543029Y-107416351D01*
X155545067Y-107492029D01*
X155550711Y-107711878D01*
X155731334Y-107548084D01*
X155818072Y-107469451D01*
X155893843Y-107401058D01*
X155955980Y-107345708D01*
X156006078Y-107302338D01*
X156045735Y-107269881D01*
X156076548Y-107247273D01*
X156100114Y-107233448D01*
X156118030Y-107227343D01*
X156131893Y-107227892D01*
G36*
X156131893Y-107227892D02*
G01*
X156143301Y-107234029D01*
X156153850Y-107244691D01*
X156165136Y-107258811D01*
X156169589Y-107264772D01*
X156175588Y-107275268D01*
X156180167Y-107289093D01*
X156183519Y-107308998D01*
X156185833Y-107337732D01*
X156187301Y-107378045D01*
X156188113Y-107432687D01*
X156188460Y-107504407D01*
X156188534Y-107595956D01*
X156188511Y-107654486D01*
X156188292Y-107733573D01*
X156187683Y-107794516D01*
X156186492Y-107840062D01*
X156184529Y-107872963D01*
X156181603Y-107895968D01*
X156177523Y-107911826D01*
X156172097Y-107923286D01*
X156165136Y-107933100D01*
X156134708Y-107957493D01*
X156099765Y-107960372D01*
X156062784Y-107941282D01*
X156058600Y-107937807D01*
X156050424Y-107929279D01*
X156044364Y-107917728D01*
X156039981Y-107899896D01*
X156036839Y-107872524D01*
X156034502Y-107832354D01*
X156032531Y-107776128D01*
X156030489Y-107700589D01*
X156024845Y-107481458D01*
X155759556Y-107722099D01*
X155685722Y-107788875D01*
X155620542Y-107846991D01*
X155568348Y-107891949D01*
X155527273Y-107924871D01*
X155495455Y-107946879D01*
X155471026Y-107959094D01*
X155452124Y-107962639D01*
X155436883Y-107958636D01*
X155423439Y-107948207D01*
X155409927Y-107932474D01*
X155403682Y-107923991D01*
X155398050Y-107913413D01*
X155393839Y-107899255D01*
X155390887Y-107878803D01*
X155389032Y-107849342D01*
X155388113Y-107808161D01*
X155387968Y-107752544D01*
X155388435Y-107679779D01*
X155389352Y-107587151D01*
X155392667Y-107272199D01*
X155419318Y-107250633D01*
X155445383Y-107234441D01*
X155478241Y-107231670D01*
X155512772Y-107250623D01*
X155517084Y-107254208D01*
X155525216Y-107262737D01*
X155531245Y-107274329D01*
X155535606Y-107292235D01*
X155538734Y-107319706D01*
X155541063Y-107359994D01*
X155543029Y-107416351D01*
X155545067Y-107492029D01*
X155550711Y-107711878D01*
X155731334Y-107548084D01*
X155818072Y-107469451D01*
X155893843Y-107401058D01*
X155955980Y-107345708D01*
X156006078Y-107302338D01*
X156045735Y-107269881D01*
X156076548Y-107247273D01*
X156100114Y-107233448D01*
X156118030Y-107227343D01*
X156131893Y-107227892D01*
G37*
X156929150Y-107234179D02*
X157035157Y-107250494D01*
X157128969Y-107278545D01*
X157207765Y-107317452D01*
X157268719Y-107366334D01*
X157294789Y-107399195D01*
X157324297Y-107448394D01*
X157349568Y-107502252D01*
X157367218Y-107553419D01*
X157373858Y-107594544D01*
X157372298Y-107614259D01*
X157359357Y-107665592D01*
X157336194Y-107722118D01*
X157306302Y-107776035D01*
X157273173Y-107819539D01*
X157262977Y-107829887D01*
X157195892Y-107881662D01*
X157115766Y-107921554D01*
X157029556Y-107945956D01*
X156974592Y-107954068D01*
X156881139Y-107960673D01*
X156791358Y-107958586D01*
X156708869Y-107948340D01*
X156637286Y-107930470D01*
X156580228Y-107905508D01*
X156541311Y-107873988D01*
X156539936Y-107872012D01*
X156532848Y-107846786D01*
X156528609Y-107799535D01*
X156527200Y-107730071D01*
X156528060Y-107667838D01*
X156532780Y-107620456D01*
X156544470Y-107588353D01*
X156566239Y-107568800D01*
X156601198Y-107559070D01*
X156652456Y-107556433D01*
X156723123Y-107558161D01*
X156771743Y-107561173D01*
X156821939Y-107569366D01*
X156854433Y-107583419D01*
X156871892Y-107604654D01*
X156876983Y-107634394D01*
X156876877Y-107638936D01*
X156868175Y-107673730D01*
X156844165Y-107697147D01*
X156802900Y-107710347D01*
X156742431Y-107714489D01*
X156673956Y-107714489D01*
X156673956Y-107752841D01*
X156674006Y-107761976D01*
X156676227Y-107779227D01*
X156685494Y-107789521D01*
X156706875Y-107796459D01*
X156745436Y-107803641D01*
X156750910Y-107804575D01*
X156847860Y-107814478D01*
X156937852Y-107811559D01*
X157018760Y-107796829D01*
X157088459Y-107771299D01*
X157144824Y-107735978D01*
X157185729Y-107691879D01*
X157209051Y-107640012D01*
X157212663Y-107581388D01*
X157207145Y-107552494D01*
X157180461Y-107496604D01*
X157134273Y-107450945D01*
X157069291Y-107416108D01*
X156986229Y-107392690D01*
X156961555Y-107388241D01*
X156872226Y-107377742D01*
X156792419Y-107378971D01*
X156714326Y-107391906D01*
X156679183Y-107398696D01*
X156633745Y-107399713D01*
X156602430Y-107387182D01*
X156582277Y-107360395D01*
X156575893Y-107332148D01*
X156585379Y-107300924D01*
X156594708Y-107287499D01*
X156628943Y-107263967D01*
X156681565Y-107246095D01*
X156750081Y-107234599D01*
X156832000Y-107230192D01*
X156929150Y-107234179D01*
G36*
X156929150Y-107234179D02*
G01*
X157035157Y-107250494D01*
X157128969Y-107278545D01*
X157207765Y-107317452D01*
X157268719Y-107366334D01*
X157294789Y-107399195D01*
X157324297Y-107448394D01*
X157349568Y-107502252D01*
X157367218Y-107553419D01*
X157373858Y-107594544D01*
X157372298Y-107614259D01*
X157359357Y-107665592D01*
X157336194Y-107722118D01*
X157306302Y-107776035D01*
X157273173Y-107819539D01*
X157262977Y-107829887D01*
X157195892Y-107881662D01*
X157115766Y-107921554D01*
X157029556Y-107945956D01*
X156974592Y-107954068D01*
X156881139Y-107960673D01*
X156791358Y-107958586D01*
X156708869Y-107948340D01*
X156637286Y-107930470D01*
X156580228Y-107905508D01*
X156541311Y-107873988D01*
X156539936Y-107872012D01*
X156532848Y-107846786D01*
X156528609Y-107799535D01*
X156527200Y-107730071D01*
X156528060Y-107667838D01*
X156532780Y-107620456D01*
X156544470Y-107588353D01*
X156566239Y-107568800D01*
X156601198Y-107559070D01*
X156652456Y-107556433D01*
X156723123Y-107558161D01*
X156771743Y-107561173D01*
X156821939Y-107569366D01*
X156854433Y-107583419D01*
X156871892Y-107604654D01*
X156876983Y-107634394D01*
X156876877Y-107638936D01*
X156868175Y-107673730D01*
X156844165Y-107697147D01*
X156802900Y-107710347D01*
X156742431Y-107714489D01*
X156673956Y-107714489D01*
X156673956Y-107752841D01*
X156674006Y-107761976D01*
X156676227Y-107779227D01*
X156685494Y-107789521D01*
X156706875Y-107796459D01*
X156745436Y-107803641D01*
X156750910Y-107804575D01*
X156847860Y-107814478D01*
X156937852Y-107811559D01*
X157018760Y-107796829D01*
X157088459Y-107771299D01*
X157144824Y-107735978D01*
X157185729Y-107691879D01*
X157209051Y-107640012D01*
X157212663Y-107581388D01*
X157207145Y-107552494D01*
X157180461Y-107496604D01*
X157134273Y-107450945D01*
X157069291Y-107416108D01*
X156986229Y-107392690D01*
X156961555Y-107388241D01*
X156872226Y-107377742D01*
X156792419Y-107378971D01*
X156714326Y-107391906D01*
X156679183Y-107398696D01*
X156633745Y-107399713D01*
X156602430Y-107387182D01*
X156582277Y-107360395D01*
X156575893Y-107332148D01*
X156585379Y-107300924D01*
X156594708Y-107287499D01*
X156628943Y-107263967D01*
X156681565Y-107246095D01*
X156750081Y-107234599D01*
X156832000Y-107230192D01*
X156929150Y-107234179D01*
G37*
X154979803Y-107258811D02*
X154984752Y-107265495D01*
X154990596Y-107276066D01*
X154995057Y-107290153D01*
X154998321Y-107310478D01*
X155000574Y-107339765D01*
X155002002Y-107380737D01*
X155002792Y-107436117D01*
X155003129Y-107508628D01*
X155003200Y-107600994D01*
X155003171Y-107666911D01*
X155002939Y-107745228D01*
X155002319Y-107805496D01*
X155001126Y-107850393D01*
X154999179Y-107882602D01*
X154996294Y-107904800D01*
X154992288Y-107919669D01*
X154986979Y-107929889D01*
X154980183Y-107938138D01*
X154975668Y-107942795D01*
X154967438Y-107949282D01*
X154956078Y-107954194D01*
X154938810Y-107957749D01*
X154912855Y-107960167D01*
X154875436Y-107961667D01*
X154823773Y-107962467D01*
X154755089Y-107962787D01*
X154666606Y-107962845D01*
X154646931Y-107962838D01*
X154559906Y-107962572D01*
X154492254Y-107961806D01*
X154441299Y-107960392D01*
X154404367Y-107958180D01*
X154378783Y-107955022D01*
X154361871Y-107950769D01*
X154350957Y-107945271D01*
X154340464Y-107935285D01*
X154327203Y-107904168D01*
X154328386Y-107868280D01*
X154344550Y-107836733D01*
X154346739Y-107834457D01*
X154355427Y-107828189D01*
X154368769Y-107823523D01*
X154389752Y-107820227D01*
X154421363Y-107818068D01*
X154466590Y-107816814D01*
X154528420Y-107816231D01*
X154609839Y-107816089D01*
X154856445Y-107816089D01*
X154856445Y-107658045D01*
X154694006Y-107658045D01*
X154658338Y-107657964D01*
X154602568Y-107657167D01*
X154563430Y-107655162D01*
X154536976Y-107651521D01*
X154519259Y-107645812D01*
X154506329Y-107637607D01*
X154502686Y-107634423D01*
X154484278Y-107603448D01*
X154483644Y-107567112D01*
X154501183Y-107533493D01*
X154501245Y-107533424D01*
X154510916Y-107524798D01*
X154524209Y-107518742D01*
X154544917Y-107514811D01*
X154576828Y-107512556D01*
X154623734Y-107511531D01*
X154689424Y-107511289D01*
X154857571Y-107511289D01*
X154854186Y-107446378D01*
X154850800Y-107381467D01*
X154608723Y-107378414D01*
X154583707Y-107378086D01*
X154502087Y-107376606D01*
X154439768Y-107374222D01*
X154394154Y-107370227D01*
X154362652Y-107363913D01*
X154342667Y-107354574D01*
X154331604Y-107341503D01*
X154326869Y-107323992D01*
X154325867Y-107301335D01*
X154325873Y-107298970D01*
X154327027Y-107278939D01*
X154331824Y-107263146D01*
X154342632Y-107251090D01*
X154361817Y-107242267D01*
X154391745Y-107236175D01*
X154434783Y-107232311D01*
X154493299Y-107230174D01*
X154569657Y-107229260D01*
X154666226Y-107229067D01*
X154956406Y-107229067D01*
X154979803Y-107258811D01*
G36*
X154979803Y-107258811D02*
G01*
X154984752Y-107265495D01*
X154990596Y-107276066D01*
X154995057Y-107290153D01*
X154998321Y-107310478D01*
X155000574Y-107339765D01*
X155002002Y-107380737D01*
X155002792Y-107436117D01*
X155003129Y-107508628D01*
X155003200Y-107600994D01*
X155003171Y-107666911D01*
X155002939Y-107745228D01*
X155002319Y-107805496D01*
X155001126Y-107850393D01*
X154999179Y-107882602D01*
X154996294Y-107904800D01*
X154992288Y-107919669D01*
X154986979Y-107929889D01*
X154980183Y-107938138D01*
X154975668Y-107942795D01*
X154967438Y-107949282D01*
X154956078Y-107954194D01*
X154938810Y-107957749D01*
X154912855Y-107960167D01*
X154875436Y-107961667D01*
X154823773Y-107962467D01*
X154755089Y-107962787D01*
X154666606Y-107962845D01*
X154646931Y-107962838D01*
X154559906Y-107962572D01*
X154492254Y-107961806D01*
X154441299Y-107960392D01*
X154404367Y-107958180D01*
X154378783Y-107955022D01*
X154361871Y-107950769D01*
X154350957Y-107945271D01*
X154340464Y-107935285D01*
X154327203Y-107904168D01*
X154328386Y-107868280D01*
X154344550Y-107836733D01*
X154346739Y-107834457D01*
X154355427Y-107828189D01*
X154368769Y-107823523D01*
X154389752Y-107820227D01*
X154421363Y-107818068D01*
X154466590Y-107816814D01*
X154528420Y-107816231D01*
X154609839Y-107816089D01*
X154856445Y-107816089D01*
X154856445Y-107658045D01*
X154694006Y-107658045D01*
X154658338Y-107657964D01*
X154602568Y-107657167D01*
X154563430Y-107655162D01*
X154536976Y-107651521D01*
X154519259Y-107645812D01*
X154506329Y-107637607D01*
X154502686Y-107634423D01*
X154484278Y-107603448D01*
X154483644Y-107567112D01*
X154501183Y-107533493D01*
X154501245Y-107533424D01*
X154510916Y-107524798D01*
X154524209Y-107518742D01*
X154544917Y-107514811D01*
X154576828Y-107512556D01*
X154623734Y-107511531D01*
X154689424Y-107511289D01*
X154857571Y-107511289D01*
X154854186Y-107446378D01*
X154850800Y-107381467D01*
X154608723Y-107378414D01*
X154583707Y-107378086D01*
X154502087Y-107376606D01*
X154439768Y-107374222D01*
X154394154Y-107370227D01*
X154362652Y-107363913D01*
X154342667Y-107354574D01*
X154331604Y-107341503D01*
X154326869Y-107323992D01*
X154325867Y-107301335D01*
X154325873Y-107298970D01*
X154327027Y-107278939D01*
X154331824Y-107263146D01*
X154342632Y-107251090D01*
X154361817Y-107242267D01*
X154391745Y-107236175D01*
X154434783Y-107232311D01*
X154493299Y-107230174D01*
X154569657Y-107229260D01*
X154666226Y-107229067D01*
X154956406Y-107229067D01*
X154979803Y-107258811D01*
G37*
X159656734Y-107229083D02*
X159733831Y-107229275D01*
X159792777Y-107229860D01*
X159836364Y-107231051D01*
X159867383Y-107233064D01*
X159888625Y-107236112D01*
X159902882Y-107240409D01*
X159912945Y-107246172D01*
X159921606Y-107253612D01*
X159923391Y-107255293D01*
X159930635Y-107262832D01*
X159936277Y-107271850D01*
X159940517Y-107284984D01*
X159943556Y-107304872D01*
X159945594Y-107334151D01*
X159946830Y-107375458D01*
X159947465Y-107431431D01*
X159947700Y-107504707D01*
X159947734Y-107597923D01*
X159947697Y-107670713D01*
X159947448Y-107748889D01*
X159946812Y-107809103D01*
X159945615Y-107853982D01*
X159943684Y-107886152D01*
X159940846Y-107908239D01*
X159936927Y-107922870D01*
X159931755Y-107932670D01*
X159925156Y-107940267D01*
X159921822Y-107943444D01*
X159913300Y-107949554D01*
X159901298Y-107954229D01*
X159883087Y-107957659D01*
X159855940Y-107960036D01*
X159817129Y-107961552D01*
X159763924Y-107962398D01*
X159693598Y-107962765D01*
X159603422Y-107962845D01*
X159561314Y-107962833D01*
X159480167Y-107962651D01*
X159417675Y-107962098D01*
X159371109Y-107960982D01*
X159337741Y-107959113D01*
X159314844Y-107956298D01*
X159299688Y-107952346D01*
X159289546Y-107947066D01*
X159281689Y-107940267D01*
X159266963Y-107918667D01*
X159259111Y-107889467D01*
X159264610Y-107865560D01*
X159281689Y-107838667D01*
X159286668Y-107834059D01*
X159296443Y-107827772D01*
X159310559Y-107823146D01*
X159332054Y-107819930D01*
X159363968Y-107817870D01*
X159409342Y-107816712D01*
X159471213Y-107816202D01*
X159552622Y-107816089D01*
X159800978Y-107816089D01*
X159800978Y-107658045D01*
X159639801Y-107658045D01*
X159603983Y-107657899D01*
X159538359Y-107656176D01*
X159491118Y-107651741D01*
X159459383Y-107643637D01*
X159440277Y-107630906D01*
X159430923Y-107612592D01*
X159428445Y-107587738D01*
X159429242Y-107567482D01*
X159434494Y-107545656D01*
X159447288Y-107530304D01*
X159470628Y-107520309D01*
X159507517Y-107514553D01*
X159560959Y-107511919D01*
X159633958Y-107511289D01*
X159802105Y-107511289D01*
X159798719Y-107446378D01*
X159795334Y-107381467D01*
X159547617Y-107378418D01*
X159485026Y-107377539D01*
X159416565Y-107376095D01*
X159365661Y-107374164D01*
X159329408Y-107371514D01*
X159304901Y-107367910D01*
X159289235Y-107363121D01*
X159279506Y-107356913D01*
X159273491Y-107350510D01*
X159260482Y-107318828D01*
X159264043Y-107283142D01*
X159283818Y-107252084D01*
X159287069Y-107249161D01*
X159296049Y-107242810D01*
X159308153Y-107237957D01*
X159326159Y-107234403D01*
X159352847Y-107231946D01*
X159390997Y-107230385D01*
X159443386Y-107229518D01*
X159512794Y-107229146D01*
X159602001Y-107229067D01*
X159656734Y-107229083D01*
G36*
X159656734Y-107229083D02*
G01*
X159733831Y-107229275D01*
X159792777Y-107229860D01*
X159836364Y-107231051D01*
X159867383Y-107233064D01*
X159888625Y-107236112D01*
X159902882Y-107240409D01*
X159912945Y-107246172D01*
X159921606Y-107253612D01*
X159923391Y-107255293D01*
X159930635Y-107262832D01*
X159936277Y-107271850D01*
X159940517Y-107284984D01*
X159943556Y-107304872D01*
X159945594Y-107334151D01*
X159946830Y-107375458D01*
X159947465Y-107431431D01*
X159947700Y-107504707D01*
X159947734Y-107597923D01*
X159947697Y-107670713D01*
X159947448Y-107748889D01*
X159946812Y-107809103D01*
X159945615Y-107853982D01*
X159943684Y-107886152D01*
X159940846Y-107908239D01*
X159936927Y-107922870D01*
X159931755Y-107932670D01*
X159925156Y-107940267D01*
X159921822Y-107943444D01*
X159913300Y-107949554D01*
X159901298Y-107954229D01*
X159883087Y-107957659D01*
X159855940Y-107960036D01*
X159817129Y-107961552D01*
X159763924Y-107962398D01*
X159693598Y-107962765D01*
X159603422Y-107962845D01*
X159561314Y-107962833D01*
X159480167Y-107962651D01*
X159417675Y-107962098D01*
X159371109Y-107960982D01*
X159337741Y-107959113D01*
X159314844Y-107956298D01*
X159299688Y-107952346D01*
X159289546Y-107947066D01*
X159281689Y-107940267D01*
X159266963Y-107918667D01*
X159259111Y-107889467D01*
X159264610Y-107865560D01*
X159281689Y-107838667D01*
X159286668Y-107834059D01*
X159296443Y-107827772D01*
X159310559Y-107823146D01*
X159332054Y-107819930D01*
X159363968Y-107817870D01*
X159409342Y-107816712D01*
X159471213Y-107816202D01*
X159552622Y-107816089D01*
X159800978Y-107816089D01*
X159800978Y-107658045D01*
X159639801Y-107658045D01*
X159603983Y-107657899D01*
X159538359Y-107656176D01*
X159491118Y-107651741D01*
X159459383Y-107643637D01*
X159440277Y-107630906D01*
X159430923Y-107612592D01*
X159428445Y-107587738D01*
X159429242Y-107567482D01*
X159434494Y-107545656D01*
X159447288Y-107530304D01*
X159470628Y-107520309D01*
X159507517Y-107514553D01*
X159560959Y-107511919D01*
X159633958Y-107511289D01*
X159802105Y-107511289D01*
X159798719Y-107446378D01*
X159795334Y-107381467D01*
X159547617Y-107378418D01*
X159485026Y-107377539D01*
X159416565Y-107376095D01*
X159365661Y-107374164D01*
X159329408Y-107371514D01*
X159304901Y-107367910D01*
X159289235Y-107363121D01*
X159279506Y-107356913D01*
X159273491Y-107350510D01*
X159260482Y-107318828D01*
X159264043Y-107283142D01*
X159283818Y-107252084D01*
X159287069Y-107249161D01*
X159296049Y-107242810D01*
X159308153Y-107237957D01*
X159326159Y-107234403D01*
X159352847Y-107231946D01*
X159390997Y-107230385D01*
X159443386Y-107229518D01*
X159512794Y-107229146D01*
X159602001Y-107229067D01*
X159656734Y-107229083D01*
G37*
X151089702Y-107238478D02*
X151107663Y-107256989D01*
X151128263Y-107288071D01*
X151153095Y-107333756D01*
X151183750Y-107396078D01*
X151221820Y-107477071D01*
X151236454Y-107508454D01*
X151266203Y-107571638D01*
X151292297Y-107626244D01*
X151313292Y-107669290D01*
X151327739Y-107697793D01*
X151334191Y-107708770D01*
X151335550Y-107708189D01*
X151345542Y-107694242D01*
X151362833Y-107664704D01*
X151385430Y-107623087D01*
X151411338Y-107572903D01*
X151427311Y-107541414D01*
X151456261Y-107486061D01*
X151478749Y-107447044D01*
X151496965Y-107421566D01*
X151513096Y-107406831D01*
X151529330Y-107400042D01*
X151547857Y-107398400D01*
X151558360Y-107398875D01*
X151574476Y-107403082D01*
X151589790Y-107413946D01*
X151606388Y-107434219D01*
X151626357Y-107466654D01*
X151651783Y-107514004D01*
X151684752Y-107579022D01*
X151694485Y-107598277D01*
X151718943Y-107644946D01*
X151739178Y-107681109D01*
X151753311Y-107703497D01*
X151759460Y-107708845D01*
X151760827Y-107705573D01*
X151770202Y-107684664D01*
X151787062Y-107647725D01*
X151809979Y-107597874D01*
X151837520Y-107538226D01*
X151868255Y-107471898D01*
X151894970Y-107414677D01*
X151924593Y-107352688D01*
X151947664Y-107306949D01*
X151965643Y-107274908D01*
X151979990Y-107254014D01*
X151992166Y-107241718D01*
X152003632Y-107235466D01*
X152013042Y-107232574D01*
X152038147Y-107232425D01*
X152065290Y-107247768D01*
X152066590Y-107248753D01*
X152088674Y-107271388D01*
X152099723Y-107293613D01*
X152099769Y-107294253D01*
X152095228Y-107311915D01*
X152082364Y-107346481D01*
X152062605Y-107394826D01*
X152037381Y-107453825D01*
X152008119Y-107520355D01*
X151976250Y-107591291D01*
X151943201Y-107663507D01*
X151910401Y-107733880D01*
X151879280Y-107799285D01*
X151851265Y-107856597D01*
X151827786Y-107902692D01*
X151810272Y-107934446D01*
X151800151Y-107948733D01*
X151765743Y-107962102D01*
X151724046Y-107955741D01*
X151718681Y-107951044D01*
X151702852Y-107928893D01*
X151680650Y-107892132D01*
X151654233Y-107844415D01*
X151625760Y-107789393D01*
X151545986Y-107630150D01*
X151472799Y-107776742D01*
X151463103Y-107796032D01*
X151436125Y-107848380D01*
X151412096Y-107893170D01*
X151393332Y-107926154D01*
X151382146Y-107943089D01*
X151381000Y-107944332D01*
X151352879Y-107959619D01*
X151317817Y-107961302D01*
X151286776Y-107948733D01*
X151284350Y-107945884D01*
X151272090Y-107925259D01*
X151252352Y-107887708D01*
X151226448Y-107835880D01*
X151195685Y-107772423D01*
X151161375Y-107699985D01*
X151124825Y-107621216D01*
X151104585Y-107577093D01*
X151067812Y-107496365D01*
X151039355Y-107432687D01*
X151018331Y-107383752D01*
X151003854Y-107347257D01*
X150995039Y-107320895D01*
X150991004Y-107302361D01*
X150990862Y-107289352D01*
X150993730Y-107279561D01*
X151008387Y-107258678D01*
X151034990Y-107238377D01*
X151035745Y-107238035D01*
X151055335Y-107231034D01*
X151072790Y-107230504D01*
X151089702Y-107238478D01*
G36*
X151089702Y-107238478D02*
G01*
X151107663Y-107256989D01*
X151128263Y-107288071D01*
X151153095Y-107333756D01*
X151183750Y-107396078D01*
X151221820Y-107477071D01*
X151236454Y-107508454D01*
X151266203Y-107571638D01*
X151292297Y-107626244D01*
X151313292Y-107669290D01*
X151327739Y-107697793D01*
X151334191Y-107708770D01*
X151335550Y-107708189D01*
X151345542Y-107694242D01*
X151362833Y-107664704D01*
X151385430Y-107623087D01*
X151411338Y-107572903D01*
X151427311Y-107541414D01*
X151456261Y-107486061D01*
X151478749Y-107447044D01*
X151496965Y-107421566D01*
X151513096Y-107406831D01*
X151529330Y-107400042D01*
X151547857Y-107398400D01*
X151558360Y-107398875D01*
X151574476Y-107403082D01*
X151589790Y-107413946D01*
X151606388Y-107434219D01*
X151626357Y-107466654D01*
X151651783Y-107514004D01*
X151684752Y-107579022D01*
X151694485Y-107598277D01*
X151718943Y-107644946D01*
X151739178Y-107681109D01*
X151753311Y-107703497D01*
X151759460Y-107708845D01*
X151760827Y-107705573D01*
X151770202Y-107684664D01*
X151787062Y-107647725D01*
X151809979Y-107597874D01*
X151837520Y-107538226D01*
X151868255Y-107471898D01*
X151894970Y-107414677D01*
X151924593Y-107352688D01*
X151947664Y-107306949D01*
X151965643Y-107274908D01*
X151979990Y-107254014D01*
X151992166Y-107241718D01*
X152003632Y-107235466D01*
X152013042Y-107232574D01*
X152038147Y-107232425D01*
X152065290Y-107247768D01*
X152066590Y-107248753D01*
X152088674Y-107271388D01*
X152099723Y-107293613D01*
X152099769Y-107294253D01*
X152095228Y-107311915D01*
X152082364Y-107346481D01*
X152062605Y-107394826D01*
X152037381Y-107453825D01*
X152008119Y-107520355D01*
X151976250Y-107591291D01*
X151943201Y-107663507D01*
X151910401Y-107733880D01*
X151879280Y-107799285D01*
X151851265Y-107856597D01*
X151827786Y-107902692D01*
X151810272Y-107934446D01*
X151800151Y-107948733D01*
X151765743Y-107962102D01*
X151724046Y-107955741D01*
X151718681Y-107951044D01*
X151702852Y-107928893D01*
X151680650Y-107892132D01*
X151654233Y-107844415D01*
X151625760Y-107789393D01*
X151545986Y-107630150D01*
X151472799Y-107776742D01*
X151463103Y-107796032D01*
X151436125Y-107848380D01*
X151412096Y-107893170D01*
X151393332Y-107926154D01*
X151382146Y-107943089D01*
X151381000Y-107944332D01*
X151352879Y-107959619D01*
X151317817Y-107961302D01*
X151286776Y-107948733D01*
X151284350Y-107945884D01*
X151272090Y-107925259D01*
X151252352Y-107887708D01*
X151226448Y-107835880D01*
X151195685Y-107772423D01*
X151161375Y-107699985D01*
X151124825Y-107621216D01*
X151104585Y-107577093D01*
X151067812Y-107496365D01*
X151039355Y-107432687D01*
X151018331Y-107383752D01*
X151003854Y-107347257D01*
X150995039Y-107320895D01*
X150991004Y-107302361D01*
X150990862Y-107289352D01*
X150993730Y-107279561D01*
X151008387Y-107258678D01*
X151034990Y-107238377D01*
X151035745Y-107238035D01*
X151055335Y-107231034D01*
X151072790Y-107230504D01*
X151089702Y-107238478D01*
G37*
X158640853Y-107229936D02*
X158707100Y-107235366D01*
X158762400Y-107244964D01*
X158813283Y-107259825D01*
X158884595Y-107292958D01*
X158935752Y-107335640D01*
X158966575Y-107387705D01*
X158976889Y-107448983D01*
X158975952Y-107480232D01*
X158970160Y-107505029D01*
X158955353Y-107526699D01*
X158927380Y-107554049D01*
X158919402Y-107561378D01*
X158895692Y-107582281D01*
X158873298Y-107599251D01*
X158849265Y-107613205D01*
X158820637Y-107625056D01*
X158784460Y-107635720D01*
X158737780Y-107646111D01*
X158677641Y-107657146D01*
X158601090Y-107669738D01*
X158505171Y-107684804D01*
X158486808Y-107687838D01*
X158424478Y-107701458D01*
X158379260Y-107717192D01*
X158352976Y-107734263D01*
X158347447Y-107751897D01*
X158350068Y-107756168D01*
X158368000Y-107771233D01*
X158396126Y-107787867D01*
X158408926Y-107793857D01*
X158430224Y-107801050D01*
X158456610Y-107805827D01*
X158492454Y-107808646D01*
X158542128Y-107809964D01*
X158610000Y-107810237D01*
X158627785Y-107810164D01*
X158695406Y-107809053D01*
X158760345Y-107806828D01*
X158815970Y-107803762D01*
X158855651Y-107800127D01*
X158891162Y-107796059D01*
X158920415Y-107795276D01*
X158939315Y-107799876D01*
X158954429Y-107810551D01*
X158958085Y-107814144D01*
X158974427Y-107845918D01*
X158973107Y-107881572D01*
X158954150Y-107912190D01*
X158933780Y-107923796D01*
X158897796Y-107936491D01*
X158855372Y-107946541D01*
X158851922Y-107947140D01*
X158809252Y-107952356D01*
X158751866Y-107956730D01*
X158686849Y-107959818D01*
X158621289Y-107961177D01*
X158605057Y-107961218D01*
X158506744Y-107958741D01*
X158426692Y-107950735D01*
X158361513Y-107936203D01*
X158307817Y-107914149D01*
X158262216Y-107883576D01*
X158221323Y-107843486D01*
X158201202Y-107817259D01*
X158189576Y-107787712D01*
X158186667Y-107747995D01*
X158186808Y-107736026D01*
X158190681Y-107703345D01*
X158203065Y-107676819D01*
X158228230Y-107645971D01*
X158249442Y-107623831D01*
X158275838Y-107601285D01*
X158305555Y-107582917D01*
X158341785Y-107567661D01*
X158387717Y-107554449D01*
X158446544Y-107542214D01*
X158521456Y-107529889D01*
X158615645Y-107516406D01*
X158660957Y-107509396D01*
X158728911Y-107494837D01*
X158778047Y-107478337D01*
X158807614Y-107460439D01*
X158816864Y-107441685D01*
X158805048Y-107422615D01*
X158771416Y-107403771D01*
X158768370Y-107402557D01*
X158722011Y-107390479D01*
X158659361Y-107382279D01*
X158585927Y-107378119D01*
X158507217Y-107378161D01*
X158428739Y-107382569D01*
X158356000Y-107391505D01*
X158352073Y-107392154D01*
X158303257Y-107399861D01*
X158271005Y-107403473D01*
X158250008Y-107402876D01*
X158234954Y-107397954D01*
X158220534Y-107388596D01*
X158219364Y-107387725D01*
X158194847Y-107357351D01*
X158190054Y-107321850D01*
X158205860Y-107287269D01*
X158210406Y-107282813D01*
X158240020Y-107267673D01*
X158287002Y-107254550D01*
X158347306Y-107243750D01*
X158416888Y-107235581D01*
X158491703Y-107230351D01*
X158567706Y-107228367D01*
X158640853Y-107229936D01*
G36*
X158640853Y-107229936D02*
G01*
X158707100Y-107235366D01*
X158762400Y-107244964D01*
X158813283Y-107259825D01*
X158884595Y-107292958D01*
X158935752Y-107335640D01*
X158966575Y-107387705D01*
X158976889Y-107448983D01*
X158975952Y-107480232D01*
X158970160Y-107505029D01*
X158955353Y-107526699D01*
X158927380Y-107554049D01*
X158919402Y-107561378D01*
X158895692Y-107582281D01*
X158873298Y-107599251D01*
X158849265Y-107613205D01*
X158820637Y-107625056D01*
X158784460Y-107635720D01*
X158737780Y-107646111D01*
X158677641Y-107657146D01*
X158601090Y-107669738D01*
X158505171Y-107684804D01*
X158486808Y-107687838D01*
X158424478Y-107701458D01*
X158379260Y-107717192D01*
X158352976Y-107734263D01*
X158347447Y-107751897D01*
X158350068Y-107756168D01*
X158368000Y-107771233D01*
X158396126Y-107787867D01*
X158408926Y-107793857D01*
X158430224Y-107801050D01*
X158456610Y-107805827D01*
X158492454Y-107808646D01*
X158542128Y-107809964D01*
X158610000Y-107810237D01*
X158627785Y-107810164D01*
X158695406Y-107809053D01*
X158760345Y-107806828D01*
X158815970Y-107803762D01*
X158855651Y-107800127D01*
X158891162Y-107796059D01*
X158920415Y-107795276D01*
X158939315Y-107799876D01*
X158954429Y-107810551D01*
X158958085Y-107814144D01*
X158974427Y-107845918D01*
X158973107Y-107881572D01*
X158954150Y-107912190D01*
X158933780Y-107923796D01*
X158897796Y-107936491D01*
X158855372Y-107946541D01*
X158851922Y-107947140D01*
X158809252Y-107952356D01*
X158751866Y-107956730D01*
X158686849Y-107959818D01*
X158621289Y-107961177D01*
X158605057Y-107961218D01*
X158506744Y-107958741D01*
X158426692Y-107950735D01*
X158361513Y-107936203D01*
X158307817Y-107914149D01*
X158262216Y-107883576D01*
X158221323Y-107843486D01*
X158201202Y-107817259D01*
X158189576Y-107787712D01*
X158186667Y-107747995D01*
X158186808Y-107736026D01*
X158190681Y-107703345D01*
X158203065Y-107676819D01*
X158228230Y-107645971D01*
X158249442Y-107623831D01*
X158275838Y-107601285D01*
X158305555Y-107582917D01*
X158341785Y-107567661D01*
X158387717Y-107554449D01*
X158446544Y-107542214D01*
X158521456Y-107529889D01*
X158615645Y-107516406D01*
X158660957Y-107509396D01*
X158728911Y-107494837D01*
X158778047Y-107478337D01*
X158807614Y-107460439D01*
X158816864Y-107441685D01*
X158805048Y-107422615D01*
X158771416Y-107403771D01*
X158768370Y-107402557D01*
X158722011Y-107390479D01*
X158659361Y-107382279D01*
X158585927Y-107378119D01*
X158507217Y-107378161D01*
X158428739Y-107382569D01*
X158356000Y-107391505D01*
X158352073Y-107392154D01*
X158303257Y-107399861D01*
X158271005Y-107403473D01*
X158250008Y-107402876D01*
X158234954Y-107397954D01*
X158220534Y-107388596D01*
X158219364Y-107387725D01*
X158194847Y-107357351D01*
X158190054Y-107321850D01*
X158205860Y-107287269D01*
X158210406Y-107282813D01*
X158240020Y-107267673D01*
X158287002Y-107254550D01*
X158347306Y-107243750D01*
X158416888Y-107235581D01*
X158491703Y-107230351D01*
X158567706Y-107228367D01*
X158640853Y-107229936D01*
G37*
X154788711Y-102922033D02*
X154884268Y-102939523D01*
X155048558Y-102984564D01*
X155202589Y-103047656D01*
X155348509Y-103129915D01*
X155488466Y-103232457D01*
X155624608Y-103356399D01*
X155668473Y-103401661D01*
X155780758Y-103533865D01*
X155873972Y-103671832D01*
X155950719Y-103819750D01*
X156013603Y-103981803D01*
X156017420Y-103993391D01*
X156067507Y-104179392D01*
X156100899Y-104375521D01*
X156117584Y-104577568D01*
X156117551Y-104781325D01*
X156100791Y-104982581D01*
X156067292Y-105177128D01*
X156017044Y-105360756D01*
X155973190Y-105478053D01*
X155895348Y-105640951D01*
X155801828Y-105794866D01*
X155694822Y-105936671D01*
X155576519Y-106063239D01*
X155449111Y-106171441D01*
X155371606Y-106224120D01*
X155244725Y-106293750D01*
X155107243Y-106352468D01*
X154965716Y-106397587D01*
X154826702Y-106426422D01*
X154812597Y-106428106D01*
X154769153Y-106431434D01*
X154711723Y-106434275D01*
X154646122Y-106436373D01*
X154578167Y-106437468D01*
X154451378Y-106435140D01*
X154303673Y-106422136D01*
X154165779Y-106397133D01*
X154032014Y-106359318D01*
X154008562Y-106350889D01*
X153960612Y-106331408D01*
X153904140Y-106306473D01*
X153842379Y-106277722D01*
X153778563Y-106246790D01*
X153715926Y-106215315D01*
X153657703Y-106184934D01*
X153607127Y-106157283D01*
X153567433Y-106133999D01*
X153541854Y-106116718D01*
X153533625Y-106107079D01*
X153535076Y-106103984D01*
X153546250Y-106084079D01*
X153567134Y-106048420D01*
X153596265Y-105999459D01*
X153632181Y-105939646D01*
X153673420Y-105871433D01*
X153718517Y-105797271D01*
X153899785Y-105500008D01*
X153946315Y-105544539D01*
X154037723Y-105622865D01*
X154151334Y-105697439D01*
X154269122Y-105751474D01*
X154389559Y-105784290D01*
X154511117Y-105795211D01*
X154552585Y-105793868D01*
X154670080Y-105775612D01*
X154780089Y-105736617D01*
X154881430Y-105677670D01*
X154972921Y-105599557D01*
X155053380Y-105503064D01*
X155121627Y-105388978D01*
X155137908Y-105354724D01*
X155183982Y-105231240D01*
X155219106Y-105092918D01*
X155243197Y-104943561D01*
X155256173Y-104786973D01*
X155257949Y-104626956D01*
X155248443Y-104467314D01*
X155227572Y-104311850D01*
X155195252Y-104164366D01*
X155151399Y-104028667D01*
X155113982Y-103942076D01*
X155049185Y-103828688D01*
X154973772Y-103735070D01*
X154887418Y-103660959D01*
X154789795Y-103606094D01*
X154680577Y-103570212D01*
X154559439Y-103553051D01*
X154490038Y-103551880D01*
X154367168Y-103566141D01*
X154251664Y-103601241D01*
X154144953Y-103656682D01*
X154048464Y-103731964D01*
X154032720Y-103746440D01*
X154002150Y-103772962D01*
X153979809Y-103790138D01*
X153969691Y-103794787D01*
X153967706Y-103792597D01*
X153953241Y-103773721D01*
X153929400Y-103740397D01*
X153898029Y-103695380D01*
X153860974Y-103641425D01*
X153820083Y-103581285D01*
X153777202Y-103517718D01*
X153734178Y-103453476D01*
X153692857Y-103391315D01*
X153655086Y-103333991D01*
X153622712Y-103284257D01*
X153597582Y-103244868D01*
X153581542Y-103218580D01*
X153576439Y-103208147D01*
X153581050Y-103203941D01*
X153600267Y-103198933D01*
X153609838Y-103196386D01*
X153637809Y-103185249D01*
X153679448Y-103166802D01*
X153730995Y-103142725D01*
X153788690Y-103114699D01*
X153799957Y-103109154D01*
X153977687Y-103029889D01*
X154147490Y-102970385D01*
X154311430Y-102930245D01*
X154471571Y-102909071D01*
X154629977Y-102906466D01*
X154788711Y-102922033D01*
G36*
X154788711Y-102922033D02*
G01*
X154884268Y-102939523D01*
X155048558Y-102984564D01*
X155202589Y-103047656D01*
X155348509Y-103129915D01*
X155488466Y-103232457D01*
X155624608Y-103356399D01*
X155668473Y-103401661D01*
X155780758Y-103533865D01*
X155873972Y-103671832D01*
X155950719Y-103819750D01*
X156013603Y-103981803D01*
X156017420Y-103993391D01*
X156067507Y-104179392D01*
X156100899Y-104375521D01*
X156117584Y-104577568D01*
X156117551Y-104781325D01*
X156100791Y-104982581D01*
X156067292Y-105177128D01*
X156017044Y-105360756D01*
X155973190Y-105478053D01*
X155895348Y-105640951D01*
X155801828Y-105794866D01*
X155694822Y-105936671D01*
X155576519Y-106063239D01*
X155449111Y-106171441D01*
X155371606Y-106224120D01*
X155244725Y-106293750D01*
X155107243Y-106352468D01*
X154965716Y-106397587D01*
X154826702Y-106426422D01*
X154812597Y-106428106D01*
X154769153Y-106431434D01*
X154711723Y-106434275D01*
X154646122Y-106436373D01*
X154578167Y-106437468D01*
X154451378Y-106435140D01*
X154303673Y-106422136D01*
X154165779Y-106397133D01*
X154032014Y-106359318D01*
X154008562Y-106350889D01*
X153960612Y-106331408D01*
X153904140Y-106306473D01*
X153842379Y-106277722D01*
X153778563Y-106246790D01*
X153715926Y-106215315D01*
X153657703Y-106184934D01*
X153607127Y-106157283D01*
X153567433Y-106133999D01*
X153541854Y-106116718D01*
X153533625Y-106107079D01*
X153535076Y-106103984D01*
X153546250Y-106084079D01*
X153567134Y-106048420D01*
X153596265Y-105999459D01*
X153632181Y-105939646D01*
X153673420Y-105871433D01*
X153718517Y-105797271D01*
X153899785Y-105500008D01*
X153946315Y-105544539D01*
X154037723Y-105622865D01*
X154151334Y-105697439D01*
X154269122Y-105751474D01*
X154389559Y-105784290D01*
X154511117Y-105795211D01*
X154552585Y-105793868D01*
X154670080Y-105775612D01*
X154780089Y-105736617D01*
X154881430Y-105677670D01*
X154972921Y-105599557D01*
X155053380Y-105503064D01*
X155121627Y-105388978D01*
X155137908Y-105354724D01*
X155183982Y-105231240D01*
X155219106Y-105092918D01*
X155243197Y-104943561D01*
X155256173Y-104786973D01*
X155257949Y-104626956D01*
X155248443Y-104467314D01*
X155227572Y-104311850D01*
X155195252Y-104164366D01*
X155151399Y-104028667D01*
X155113982Y-103942076D01*
X155049185Y-103828688D01*
X154973772Y-103735070D01*
X154887418Y-103660959D01*
X154789795Y-103606094D01*
X154680577Y-103570212D01*
X154559439Y-103553051D01*
X154490038Y-103551880D01*
X154367168Y-103566141D01*
X154251664Y-103601241D01*
X154144953Y-103656682D01*
X154048464Y-103731964D01*
X154032720Y-103746440D01*
X154002150Y-103772962D01*
X153979809Y-103790138D01*
X153969691Y-103794787D01*
X153967706Y-103792597D01*
X153953241Y-103773721D01*
X153929400Y-103740397D01*
X153898029Y-103695380D01*
X153860974Y-103641425D01*
X153820083Y-103581285D01*
X153777202Y-103517718D01*
X153734178Y-103453476D01*
X153692857Y-103391315D01*
X153655086Y-103333991D01*
X153622712Y-103284257D01*
X153597582Y-103244868D01*
X153581542Y-103218580D01*
X153576439Y-103208147D01*
X153581050Y-103203941D01*
X153600267Y-103198933D01*
X153609838Y-103196386D01*
X153637809Y-103185249D01*
X153679448Y-103166802D01*
X153730995Y-103142725D01*
X153788690Y-103114699D01*
X153799957Y-103109154D01*
X153977687Y-103029889D01*
X154147490Y-102970385D01*
X154311430Y-102930245D01*
X154471571Y-102909071D01*
X154629977Y-102906466D01*
X154788711Y-102922033D01*
G37*
X150985994Y-105202711D02*
X150985268Y-105280158D01*
X150976689Y-105431594D01*
X150957833Y-105568283D01*
X150927837Y-105694276D01*
X150885836Y-105813625D01*
X150830969Y-105930381D01*
X150764167Y-106041179D01*
X150673363Y-106154739D01*
X150569708Y-106250211D01*
X150453887Y-106327073D01*
X150326586Y-106384797D01*
X150188489Y-106422858D01*
X150150793Y-106428666D01*
X150071752Y-106434396D01*
X149983629Y-106434583D01*
X149894236Y-106429539D01*
X149811384Y-106419578D01*
X149742887Y-106405012D01*
X149712035Y-106395364D01*
X149634730Y-106365123D01*
X149557679Y-106327617D01*
X149488200Y-106286614D01*
X149433615Y-106245879D01*
X149410916Y-106226505D01*
X149388201Y-106208662D01*
X149376779Y-106201778D01*
X149375537Y-106203424D01*
X149372728Y-106221205D01*
X149370776Y-106254370D01*
X149370045Y-106297733D01*
X149370045Y-106393689D01*
X148511896Y-106393689D01*
X148546161Y-106332974D01*
X148551355Y-106323868D01*
X148559715Y-106309249D01*
X148567288Y-106295173D01*
X148574112Y-106280540D01*
X148580227Y-106264249D01*
X148585673Y-106245198D01*
X148590487Y-106222286D01*
X148594708Y-106194413D01*
X148598377Y-106160478D01*
X148601531Y-106119379D01*
X148604211Y-106070015D01*
X148606454Y-106011286D01*
X148608299Y-105942090D01*
X148609787Y-105861326D01*
X148610955Y-105767894D01*
X148611844Y-105660692D01*
X148612491Y-105538620D01*
X148612936Y-105400576D01*
X148613218Y-105245459D01*
X148613375Y-105072168D01*
X148613448Y-104879603D01*
X148613474Y-104666662D01*
X148613485Y-104530530D01*
X149415200Y-104530530D01*
X149415200Y-105680721D01*
X149485756Y-105727089D01*
X149526417Y-105750791D01*
X149580546Y-105776639D01*
X149629689Y-105794829D01*
X149693165Y-105810551D01*
X149789331Y-105821541D01*
X149873900Y-105813365D01*
X149947219Y-105785805D01*
X150009637Y-105738642D01*
X150061502Y-105671658D01*
X150103160Y-105584633D01*
X150134962Y-105477350D01*
X150137545Y-105465009D01*
X150146000Y-105403772D01*
X150151663Y-105326692D01*
X150154576Y-105239002D01*
X150154783Y-105145934D01*
X150152330Y-105052720D01*
X150147261Y-104964594D01*
X150139619Y-104886788D01*
X150129448Y-104824533D01*
X150128167Y-104818666D01*
X150099126Y-104708121D01*
X150064610Y-104617575D01*
X150023456Y-104544953D01*
X149974499Y-104488181D01*
X149916574Y-104445184D01*
X149884620Y-104429615D01*
X149811784Y-104410722D01*
X149730443Y-104407465D01*
X149645319Y-104419389D01*
X149561133Y-104446040D01*
X149482608Y-104486962D01*
X149415200Y-104530530D01*
X148613485Y-104530530D01*
X148613493Y-104432245D01*
X148613689Y-102747378D01*
X149519017Y-102747378D01*
X149494585Y-102784067D01*
X149488318Y-102793647D01*
X149462208Y-102839981D01*
X149444469Y-102887102D01*
X149432908Y-102942251D01*
X149425331Y-103012667D01*
X149424839Y-103019650D01*
X149423062Y-103057641D01*
X149421444Y-103111576D01*
X149419999Y-103178703D01*
X149418740Y-103256271D01*
X149417680Y-103341528D01*
X149416829Y-103431724D01*
X149416203Y-103524107D01*
X149415812Y-103615925D01*
X149415670Y-103704427D01*
X149415790Y-103786862D01*
X149416183Y-103860479D01*
X149416862Y-103922526D01*
X149417841Y-103970251D01*
X149419132Y-104000904D01*
X149420747Y-104011733D01*
X149428957Y-104007333D01*
X149450647Y-103992362D01*
X149480014Y-103970448D01*
X149528879Y-103936236D01*
X149617125Y-103889714D01*
X149715916Y-103856046D01*
X149828510Y-103834231D01*
X149958164Y-103823265D01*
X150050670Y-103822219D01*
X150172011Y-103832014D01*
X150282099Y-103856174D01*
X150385389Y-103895785D01*
X150486338Y-103951932D01*
X150531503Y-103982883D01*
X150636911Y-104074115D01*
X150728538Y-104183106D01*
X150806332Y-104309726D01*
X150870241Y-104453845D01*
X150920214Y-104615332D01*
X150956198Y-104794059D01*
X150978143Y-104989895D01*
X150983900Y-105145934D01*
X150985994Y-105202711D01*
G36*
X150985994Y-105202711D02*
G01*
X150985268Y-105280158D01*
X150976689Y-105431594D01*
X150957833Y-105568283D01*
X150927837Y-105694276D01*
X150885836Y-105813625D01*
X150830969Y-105930381D01*
X150764167Y-106041179D01*
X150673363Y-106154739D01*
X150569708Y-106250211D01*
X150453887Y-106327073D01*
X150326586Y-106384797D01*
X150188489Y-106422858D01*
X150150793Y-106428666D01*
X150071752Y-106434396D01*
X149983629Y-106434583D01*
X149894236Y-106429539D01*
X149811384Y-106419578D01*
X149742887Y-106405012D01*
X149712035Y-106395364D01*
X149634730Y-106365123D01*
X149557679Y-106327617D01*
X149488200Y-106286614D01*
X149433615Y-106245879D01*
X149410916Y-106226505D01*
X149388201Y-106208662D01*
X149376779Y-106201778D01*
X149375537Y-106203424D01*
X149372728Y-106221205D01*
X149370776Y-106254370D01*
X149370045Y-106297733D01*
X149370045Y-106393689D01*
X148511896Y-106393689D01*
X148546161Y-106332974D01*
X148551355Y-106323868D01*
X148559715Y-106309249D01*
X148567288Y-106295173D01*
X148574112Y-106280540D01*
X148580227Y-106264249D01*
X148585673Y-106245198D01*
X148590487Y-106222286D01*
X148594708Y-106194413D01*
X148598377Y-106160478D01*
X148601531Y-106119379D01*
X148604211Y-106070015D01*
X148606454Y-106011286D01*
X148608299Y-105942090D01*
X148609787Y-105861326D01*
X148610955Y-105767894D01*
X148611844Y-105660692D01*
X148612491Y-105538620D01*
X148612936Y-105400576D01*
X148613218Y-105245459D01*
X148613375Y-105072168D01*
X148613448Y-104879603D01*
X148613474Y-104666662D01*
X148613485Y-104530530D01*
X149415200Y-104530530D01*
X149415200Y-105680721D01*
X149485756Y-105727089D01*
X149526417Y-105750791D01*
X149580546Y-105776639D01*
X149629689Y-105794829D01*
X149693165Y-105810551D01*
X149789331Y-105821541D01*
X149873900Y-105813365D01*
X149947219Y-105785805D01*
X150009637Y-105738642D01*
X150061502Y-105671658D01*
X150103160Y-105584633D01*
X150134962Y-105477350D01*
X150137545Y-105465009D01*
X150146000Y-105403772D01*
X150151663Y-105326692D01*
X150154576Y-105239002D01*
X150154783Y-105145934D01*
X150152330Y-105052720D01*
X150147261Y-104964594D01*
X150139619Y-104886788D01*
X150129448Y-104824533D01*
X150128167Y-104818666D01*
X150099126Y-104708121D01*
X150064610Y-104617575D01*
X150023456Y-104544953D01*
X149974499Y-104488181D01*
X149916574Y-104445184D01*
X149884620Y-104429615D01*
X149811784Y-104410722D01*
X149730443Y-104407465D01*
X149645319Y-104419389D01*
X149561133Y-104446040D01*
X149482608Y-104486962D01*
X149415200Y-104530530D01*
X148613485Y-104530530D01*
X148613493Y-104432245D01*
X148613689Y-102747378D01*
X149519017Y-102747378D01*
X149494585Y-102784067D01*
X149488318Y-102793647D01*
X149462208Y-102839981D01*
X149444469Y-102887102D01*
X149432908Y-102942251D01*
X149425331Y-103012667D01*
X149424839Y-103019650D01*
X149423062Y-103057641D01*
X149421444Y-103111576D01*
X149419999Y-103178703D01*
X149418740Y-103256271D01*
X149417680Y-103341528D01*
X149416829Y-103431724D01*
X149416203Y-103524107D01*
X149415812Y-103615925D01*
X149415670Y-103704427D01*
X149415790Y-103786862D01*
X149416183Y-103860479D01*
X149416862Y-103922526D01*
X149417841Y-103970251D01*
X149419132Y-104000904D01*
X149420747Y-104011733D01*
X149428957Y-104007333D01*
X149450647Y-103992362D01*
X149480014Y-103970448D01*
X149528879Y-103936236D01*
X149617125Y-103889714D01*
X149715916Y-103856046D01*
X149828510Y-103834231D01*
X149958164Y-103823265D01*
X150050670Y-103822219D01*
X150172011Y-103832014D01*
X150282099Y-103856174D01*
X150385389Y-103895785D01*
X150486338Y-103951932D01*
X150531503Y-103982883D01*
X150636911Y-104074115D01*
X150728538Y-104183106D01*
X150806332Y-104309726D01*
X150870241Y-104453845D01*
X150920214Y-104615332D01*
X150956198Y-104794059D01*
X150978143Y-104989895D01*
X150983900Y-105145934D01*
X150985994Y-105202711D01*
G37*
X153527755Y-105603467D02*
X153527261Y-105637363D01*
X153523632Y-105712202D01*
X153516022Y-105774401D01*
X153503688Y-105830984D01*
X153459313Y-105957076D01*
X153396400Y-106071679D01*
X153316238Y-106172568D01*
X153219740Y-106258924D01*
X153107822Y-106329932D01*
X152981397Y-106384776D01*
X152841378Y-106422638D01*
X152805149Y-106428351D01*
X152726155Y-106434313D01*
X152637841Y-106434646D01*
X152548075Y-106429659D01*
X152464722Y-106419666D01*
X152395651Y-106404978D01*
X152309187Y-106374749D01*
X152199286Y-106320057D01*
X152101956Y-106252543D01*
X152039867Y-106201556D01*
X152036605Y-106297622D01*
X152033343Y-106393689D01*
X151610450Y-106393689D01*
X151599543Y-106393686D01*
X151505056Y-106393380D01*
X151418331Y-106392616D01*
X151341837Y-106391451D01*
X151278043Y-106389942D01*
X151229418Y-106388147D01*
X151198433Y-106386121D01*
X151187556Y-106383922D01*
X151187578Y-106383463D01*
X151194614Y-106367910D01*
X151210434Y-106345071D01*
X151214734Y-106339638D01*
X151225777Y-106325606D01*
X151235311Y-106312186D01*
X151243461Y-106297722D01*
X151250352Y-106280556D01*
X151256111Y-106259034D01*
X151260862Y-106231498D01*
X151264731Y-106196292D01*
X151267844Y-106151760D01*
X151270325Y-106096246D01*
X151272300Y-106028093D01*
X151273894Y-105945645D01*
X151275234Y-105847246D01*
X151276444Y-105731239D01*
X151277649Y-105595968D01*
X151278595Y-105484586D01*
X152079378Y-105484586D01*
X152079378Y-105680462D01*
X152124048Y-105736973D01*
X152136785Y-105752212D01*
X152183604Y-105794844D01*
X152244255Y-105830672D01*
X152254897Y-105835850D01*
X152293676Y-105852745D01*
X152328692Y-105862909D01*
X152368722Y-105868325D01*
X152422541Y-105870978D01*
X152440648Y-105871383D01*
X152516011Y-105868540D01*
X152576743Y-105856620D01*
X152628452Y-105834037D01*
X152676746Y-105799211D01*
X152681803Y-105794798D01*
X152730272Y-105739160D01*
X152758459Y-105675333D01*
X152767752Y-105600282D01*
X152760520Y-105528693D01*
X152735796Y-105465645D01*
X152691249Y-105407758D01*
X152636319Y-105360808D01*
X152563894Y-105320961D01*
X152477340Y-105293263D01*
X152374670Y-105277096D01*
X152253894Y-105271842D01*
X152245007Y-105271857D01*
X152189660Y-105272655D01*
X152142736Y-105274488D01*
X152108953Y-105277111D01*
X152093028Y-105280274D01*
X152088943Y-105286741D01*
X152084572Y-105308875D01*
X152081604Y-105347988D01*
X152079914Y-105405939D01*
X152079378Y-105484586D01*
X151278595Y-105484586D01*
X151278975Y-105439778D01*
X151280228Y-105297012D01*
X151281651Y-105151942D01*
X151283176Y-105026027D01*
X151284933Y-104917436D01*
X151287051Y-104824334D01*
X151289660Y-104744891D01*
X151292890Y-104677273D01*
X151296869Y-104619649D01*
X151301728Y-104570185D01*
X151307597Y-104527050D01*
X151314604Y-104488410D01*
X151322880Y-104452434D01*
X151332554Y-104417289D01*
X151343756Y-104381142D01*
X151356616Y-104342161D01*
X151372090Y-104299091D01*
X151414994Y-104206871D01*
X151468735Y-104127099D01*
X151537576Y-104052965D01*
X151615185Y-103989405D01*
X151719761Y-103927725D01*
X151839244Y-103880202D01*
X151974508Y-103846567D01*
X152126426Y-103826552D01*
X152295872Y-103819889D01*
X152353890Y-103820287D01*
X152419398Y-103822335D01*
X152480693Y-103826704D01*
X152542097Y-103834035D01*
X152607932Y-103844969D01*
X152682520Y-103860147D01*
X152770184Y-103880209D01*
X152875245Y-103905797D01*
X152903806Y-103912820D01*
X152979054Y-103930776D01*
X153049388Y-103946820D01*
X153110567Y-103960028D01*
X153158354Y-103969474D01*
X153188511Y-103974231D01*
X153216783Y-103977910D01*
X153243060Y-103983187D01*
X153253059Y-103987942D01*
X153249952Y-103996781D01*
X153239194Y-104024072D01*
X153221864Y-104066906D01*
X153199126Y-104122425D01*
X153172147Y-104187772D01*
X153142090Y-104260089D01*
X153135493Y-104275879D01*
X153096907Y-104366484D01*
X153065768Y-104436217D01*
X153041917Y-104485405D01*
X153025198Y-104514374D01*
X153015454Y-104523452D01*
X153007766Y-104521405D01*
X152981415Y-104511760D01*
X152942982Y-104496190D01*
X152897822Y-104476815D01*
X152803293Y-104438814D01*
X152666480Y-104397780D01*
X152525289Y-104372612D01*
X152487314Y-104368611D01*
X152384059Y-104366447D01*
X152296952Y-104379622D01*
X152225129Y-104408756D01*
X152167731Y-104454466D01*
X152123896Y-104517372D01*
X152092762Y-104598092D01*
X152073470Y-104697245D01*
X152066050Y-104756224D01*
X152227936Y-104749445D01*
X152354495Y-104747813D01*
X152505951Y-104754194D01*
X152654396Y-104768777D01*
X152790578Y-104790882D01*
X152855245Y-104805821D01*
X152987490Y-104848741D01*
X153109762Y-104905340D01*
X153219685Y-104974017D01*
X153314883Y-105053170D01*
X153392980Y-105141196D01*
X153451599Y-105236493D01*
X153475595Y-105288864D01*
X153501232Y-105359590D01*
X153517478Y-105430812D01*
X153525822Y-105509712D01*
X153527690Y-105600282D01*
X153527755Y-105603467D01*
G36*
X153527755Y-105603467D02*
G01*
X153527261Y-105637363D01*
X153523632Y-105712202D01*
X153516022Y-105774401D01*
X153503688Y-105830984D01*
X153459313Y-105957076D01*
X153396400Y-106071679D01*
X153316238Y-106172568D01*
X153219740Y-106258924D01*
X153107822Y-106329932D01*
X152981397Y-106384776D01*
X152841378Y-106422638D01*
X152805149Y-106428351D01*
X152726155Y-106434313D01*
X152637841Y-106434646D01*
X152548075Y-106429659D01*
X152464722Y-106419666D01*
X152395651Y-106404978D01*
X152309187Y-106374749D01*
X152199286Y-106320057D01*
X152101956Y-106252543D01*
X152039867Y-106201556D01*
X152036605Y-106297622D01*
X152033343Y-106393689D01*
X151610450Y-106393689D01*
X151599543Y-106393686D01*
X151505056Y-106393380D01*
X151418331Y-106392616D01*
X151341837Y-106391451D01*
X151278043Y-106389942D01*
X151229418Y-106388147D01*
X151198433Y-106386121D01*
X151187556Y-106383922D01*
X151187578Y-106383463D01*
X151194614Y-106367910D01*
X151210434Y-106345071D01*
X151214734Y-106339638D01*
X151225777Y-106325606D01*
X151235311Y-106312186D01*
X151243461Y-106297722D01*
X151250352Y-106280556D01*
X151256111Y-106259034D01*
X151260862Y-106231498D01*
X151264731Y-106196292D01*
X151267844Y-106151760D01*
X151270325Y-106096246D01*
X151272300Y-106028093D01*
X151273894Y-105945645D01*
X151275234Y-105847246D01*
X151276444Y-105731239D01*
X151277649Y-105595968D01*
X151278595Y-105484586D01*
X152079378Y-105484586D01*
X152079378Y-105680462D01*
X152124048Y-105736973D01*
X152136785Y-105752212D01*
X152183604Y-105794844D01*
X152244255Y-105830672D01*
X152254897Y-105835850D01*
X152293676Y-105852745D01*
X152328692Y-105862909D01*
X152368722Y-105868325D01*
X152422541Y-105870978D01*
X152440648Y-105871383D01*
X152516011Y-105868540D01*
X152576743Y-105856620D01*
X152628452Y-105834037D01*
X152676746Y-105799211D01*
X152681803Y-105794798D01*
X152730272Y-105739160D01*
X152758459Y-105675333D01*
X152767752Y-105600282D01*
X152760520Y-105528693D01*
X152735796Y-105465645D01*
X152691249Y-105407758D01*
X152636319Y-105360808D01*
X152563894Y-105320961D01*
X152477340Y-105293263D01*
X152374670Y-105277096D01*
X152253894Y-105271842D01*
X152245007Y-105271857D01*
X152189660Y-105272655D01*
X152142736Y-105274488D01*
X152108953Y-105277111D01*
X152093028Y-105280274D01*
X152088943Y-105286741D01*
X152084572Y-105308875D01*
X152081604Y-105347988D01*
X152079914Y-105405939D01*
X152079378Y-105484586D01*
X151278595Y-105484586D01*
X151278975Y-105439778D01*
X151280228Y-105297012D01*
X151281651Y-105151942D01*
X151283176Y-105026027D01*
X151284933Y-104917436D01*
X151287051Y-104824334D01*
X151289660Y-104744891D01*
X151292890Y-104677273D01*
X151296869Y-104619649D01*
X151301728Y-104570185D01*
X151307597Y-104527050D01*
X151314604Y-104488410D01*
X151322880Y-104452434D01*
X151332554Y-104417289D01*
X151343756Y-104381142D01*
X151356616Y-104342161D01*
X151372090Y-104299091D01*
X151414994Y-104206871D01*
X151468735Y-104127099D01*
X151537576Y-104052965D01*
X151615185Y-103989405D01*
X151719761Y-103927725D01*
X151839244Y-103880202D01*
X151974508Y-103846567D01*
X152126426Y-103826552D01*
X152295872Y-103819889D01*
X152353890Y-103820287D01*
X152419398Y-103822335D01*
X152480693Y-103826704D01*
X152542097Y-103834035D01*
X152607932Y-103844969D01*
X152682520Y-103860147D01*
X152770184Y-103880209D01*
X152875245Y-103905797D01*
X152903806Y-103912820D01*
X152979054Y-103930776D01*
X153049388Y-103946820D01*
X153110567Y-103960028D01*
X153158354Y-103969474D01*
X153188511Y-103974231D01*
X153216783Y-103977910D01*
X153243060Y-103983187D01*
X153253059Y-103987942D01*
X153249952Y-103996781D01*
X153239194Y-104024072D01*
X153221864Y-104066906D01*
X153199126Y-104122425D01*
X153172147Y-104187772D01*
X153142090Y-104260089D01*
X153135493Y-104275879D01*
X153096907Y-104366484D01*
X153065768Y-104436217D01*
X153041917Y-104485405D01*
X153025198Y-104514374D01*
X153015454Y-104523452D01*
X153007766Y-104521405D01*
X152981415Y-104511760D01*
X152942982Y-104496190D01*
X152897822Y-104476815D01*
X152803293Y-104438814D01*
X152666480Y-104397780D01*
X152525289Y-104372612D01*
X152487314Y-104368611D01*
X152384059Y-104366447D01*
X152296952Y-104379622D01*
X152225129Y-104408756D01*
X152167731Y-104454466D01*
X152123896Y-104517372D01*
X152092762Y-104598092D01*
X152073470Y-104697245D01*
X152066050Y-104756224D01*
X152227936Y-104749445D01*
X152354495Y-104747813D01*
X152505951Y-104754194D01*
X152654396Y-104768777D01*
X152790578Y-104790882D01*
X152855245Y-104805821D01*
X152987490Y-104848741D01*
X153109762Y-104905340D01*
X153219685Y-104974017D01*
X153314883Y-105053170D01*
X153392980Y-105141196D01*
X153451599Y-105236493D01*
X153475595Y-105288864D01*
X153501232Y-105359590D01*
X153517478Y-105430812D01*
X153525822Y-105509712D01*
X153527690Y-105600282D01*
X153527755Y-105603467D01*
G37*
X161075614Y-103071792D02*
X161076059Y-103203011D01*
X161076362Y-103350216D01*
X161076548Y-103514349D01*
X161076642Y-103696352D01*
X161076671Y-103897165D01*
X161076661Y-104117732D01*
X161076636Y-104358992D01*
X161076622Y-104621889D01*
X161076622Y-104664040D01*
X161076646Y-104924668D01*
X161076685Y-105163796D01*
X161076708Y-105382360D01*
X161076687Y-105581295D01*
X161076593Y-105761535D01*
X161076395Y-105924015D01*
X161076063Y-106069670D01*
X161075569Y-106199434D01*
X161074883Y-106314243D01*
X161073976Y-106415030D01*
X161072817Y-106502730D01*
X161071378Y-106578279D01*
X161069629Y-106642611D01*
X161067540Y-106696661D01*
X161065083Y-106741363D01*
X161062227Y-106777652D01*
X161058943Y-106806463D01*
X161055202Y-106828731D01*
X161050974Y-106845390D01*
X161046229Y-106857375D01*
X161040939Y-106865621D01*
X161035073Y-106871062D01*
X161028602Y-106874634D01*
X161021497Y-106877270D01*
X161013728Y-106879906D01*
X161005266Y-106883477D01*
X161000908Y-106885145D01*
X160992395Y-106887111D01*
X160979694Y-106888911D01*
X160961885Y-106890555D01*
X160938049Y-106892047D01*
X160907266Y-106893397D01*
X160868617Y-106894611D01*
X160821182Y-106895697D01*
X160764043Y-106896661D01*
X160696279Y-106897511D01*
X160616971Y-106898253D01*
X160525199Y-106898897D01*
X160420044Y-106899447D01*
X160300587Y-106899913D01*
X160165908Y-106900300D01*
X160015088Y-106900616D01*
X159847206Y-106900869D01*
X159661345Y-106901066D01*
X159456583Y-106901213D01*
X159232002Y-106901318D01*
X158986682Y-106901389D01*
X158719704Y-106901432D01*
X158681321Y-106901437D01*
X158415922Y-106901480D01*
X158172050Y-106901525D01*
X157948783Y-106901548D01*
X157745196Y-106901524D01*
X157560367Y-106901430D01*
X157393373Y-106901243D01*
X157243290Y-106900939D01*
X157109196Y-106900494D01*
X156990166Y-106899885D01*
X156885279Y-106899089D01*
X156793610Y-106898080D01*
X156714237Y-106896837D01*
X156646237Y-106895335D01*
X156588686Y-106893551D01*
X156540662Y-106891461D01*
X156501240Y-106889042D01*
X156469499Y-106886270D01*
X156444514Y-106883121D01*
X156425364Y-106879572D01*
X156411123Y-106875598D01*
X156400871Y-106871178D01*
X156393682Y-106866286D01*
X156388635Y-106860900D01*
X156384805Y-106854996D01*
X156381271Y-106848549D01*
X156377108Y-106841537D01*
X156376025Y-106839687D01*
X156373813Y-106834180D01*
X156371786Y-106825868D01*
X156369938Y-106813809D01*
X156368261Y-106797063D01*
X156366745Y-106774687D01*
X156365383Y-106745740D01*
X156364167Y-106709280D01*
X156363089Y-106664367D01*
X156362140Y-106610057D01*
X156361312Y-106545410D01*
X156360597Y-106469484D01*
X156359987Y-106381338D01*
X156359942Y-106372493D01*
X156651378Y-106372493D01*
X156655260Y-106373765D01*
X156678520Y-106375791D01*
X156720874Y-106377626D01*
X156780132Y-106379227D01*
X156854107Y-106380549D01*
X156940610Y-106381548D01*
X157037452Y-106382180D01*
X157142445Y-106382400D01*
X157840651Y-106382400D01*
X158995090Y-106382400D01*
X158994456Y-106306200D01*
X158995574Y-106264160D01*
X159001304Y-106228334D01*
X159013890Y-106190772D01*
X159035568Y-106142577D01*
X159038789Y-106135897D01*
X159064188Y-106086359D01*
X159090996Y-106038369D01*
X159113917Y-106001466D01*
X159118485Y-105994834D01*
X159140516Y-105963593D01*
X159172693Y-105918654D01*
X159213457Y-105862147D01*
X159261245Y-105796204D01*
X159314498Y-105722957D01*
X159371655Y-105644536D01*
X159431155Y-105563072D01*
X159491437Y-105480698D01*
X159550940Y-105399544D01*
X159608105Y-105321742D01*
X159661370Y-105249423D01*
X159709174Y-105184718D01*
X159749957Y-105129759D01*
X159782158Y-105086676D01*
X159804216Y-105057602D01*
X159814571Y-105044667D01*
X159819044Y-105040351D01*
X159823236Y-105038312D01*
X159826643Y-105040926D01*
X159829325Y-105049986D01*
X159831341Y-105067285D01*
X159832748Y-105094614D01*
X159833605Y-105133765D01*
X159833970Y-105186533D01*
X159833903Y-105254707D01*
X159833460Y-105340082D01*
X159832702Y-105444449D01*
X159831685Y-105569600D01*
X159831308Y-105614300D01*
X159830169Y-105735395D01*
X159828972Y-105836688D01*
X159827636Y-105920262D01*
X159826077Y-105988204D01*
X159824215Y-106042599D01*
X159821966Y-106085532D01*
X159819248Y-106119089D01*
X159815979Y-106145355D01*
X159812078Y-106166416D01*
X159807461Y-106184357D01*
X159799192Y-106210770D01*
X159775583Y-106272772D01*
X159749685Y-106325573D01*
X159724535Y-106362645D01*
X159723339Y-106364075D01*
X159721168Y-106368424D01*
X159723328Y-106372026D01*
X159731644Y-106374951D01*
X159747940Y-106377269D01*
X159774041Y-106379051D01*
X159811771Y-106380367D01*
X159862956Y-106381286D01*
X159929420Y-106381878D01*
X160012987Y-106382215D01*
X160115483Y-106382365D01*
X160238732Y-106382400D01*
X160770296Y-106382400D01*
X160731523Y-106324783D01*
X160725432Y-106315893D01*
X160714976Y-106301069D01*
X160705579Y-106287422D01*
X160697183Y-106273765D01*
X160689733Y-106258911D01*
X160683173Y-106241670D01*
X160677446Y-106220855D01*
X160672495Y-106195280D01*
X160668266Y-106163755D01*
X160664701Y-106125093D01*
X160661744Y-106078107D01*
X160659340Y-106021608D01*
X160657431Y-105954409D01*
X160655962Y-105875322D01*
X160654876Y-105783160D01*
X160654118Y-105676734D01*
X160653630Y-105554857D01*
X160653358Y-105416341D01*
X160653243Y-105259999D01*
X160653231Y-105084642D01*
X160653265Y-104889082D01*
X160653289Y-104672133D01*
X160653280Y-104549513D01*
X160653243Y-104344447D01*
X160653227Y-104160116D01*
X160653288Y-103995334D01*
X160653484Y-103848916D01*
X160653870Y-103719674D01*
X160654505Y-103606422D01*
X160655444Y-103507975D01*
X160656745Y-103423144D01*
X160658464Y-103350744D01*
X160660659Y-103289589D01*
X160663385Y-103238492D01*
X160666701Y-103196267D01*
X160670662Y-103161727D01*
X160675325Y-103133686D01*
X160680747Y-103110958D01*
X160686986Y-103092356D01*
X160694097Y-103076693D01*
X160702138Y-103062784D01*
X160711166Y-103049441D01*
X160721236Y-103035479D01*
X160732407Y-103019711D01*
X160772197Y-102961867D01*
X159712314Y-102961867D01*
X159750311Y-103024966D01*
X159764993Y-103050005D01*
X159779531Y-103077586D01*
X159791627Y-103105700D01*
X159801532Y-103136551D01*
X159809494Y-103172344D01*
X159815761Y-103215283D01*
X159820582Y-103267574D01*
X159824206Y-103331419D01*
X159826881Y-103409025D01*
X159828857Y-103502594D01*
X159830382Y-103614333D01*
X159831704Y-103746445D01*
X159832613Y-103866434D01*
X159833020Y-103983063D01*
X159832767Y-104078531D01*
X159831857Y-104152556D01*
X159830293Y-104204855D01*
X159828079Y-104235149D01*
X159825220Y-104243156D01*
X159822161Y-104239858D01*
X159804006Y-104218408D01*
X159774275Y-104181889D01*
X159734639Y-104132442D01*
X159686771Y-104072207D01*
X159632343Y-104003327D01*
X159573027Y-103927943D01*
X159510495Y-103848196D01*
X159446421Y-103766228D01*
X159382475Y-103684180D01*
X159320331Y-103604194D01*
X159261661Y-103528411D01*
X159208137Y-103458973D01*
X159161430Y-103398021D01*
X159123214Y-103347696D01*
X159095161Y-103310140D01*
X159078943Y-103287495D01*
X159033635Y-103215212D01*
X158993661Y-103135463D01*
X158972130Y-103067188D01*
X158968827Y-103009844D01*
X158974116Y-102961867D01*
X157842356Y-102962117D01*
X157881867Y-102992722D01*
X157891248Y-103000089D01*
X157954183Y-103054438D01*
X158022997Y-103122259D01*
X158099596Y-103205516D01*
X158185888Y-103306178D01*
X158203052Y-103326847D01*
X158243833Y-103376409D01*
X158293588Y-103437326D01*
X158350955Y-103507898D01*
X158414569Y-103586424D01*
X158483069Y-103671204D01*
X158555090Y-103760537D01*
X158629270Y-103852722D01*
X158644517Y-103871702D01*
X158704246Y-103946060D01*
X158778653Y-104038848D01*
X158851131Y-104129388D01*
X158920314Y-104215978D01*
X158984841Y-104296918D01*
X159043347Y-104370506D01*
X159094470Y-104435044D01*
X159136847Y-104488829D01*
X159169115Y-104530162D01*
X159189910Y-104557342D01*
X159197869Y-104568668D01*
X159196111Y-104572771D01*
X159183230Y-104593334D01*
X159158885Y-104629561D01*
X159124247Y-104679824D01*
X159080486Y-104742492D01*
X159028775Y-104815936D01*
X158970284Y-104898527D01*
X158906184Y-104988636D01*
X158837646Y-105084631D01*
X158765843Y-105184885D01*
X158691944Y-105287768D01*
X158617121Y-105391650D01*
X158542545Y-105494901D01*
X158469387Y-105595892D01*
X158398819Y-105692994D01*
X158332011Y-105784577D01*
X158270135Y-105869011D01*
X158214361Y-105944667D01*
X158165862Y-106009916D01*
X158125807Y-106063128D01*
X158095369Y-106102673D01*
X158074944Y-106128026D01*
X158028899Y-106182295D01*
X157978612Y-106238775D01*
X157931815Y-106288669D01*
X157840651Y-106382400D01*
X157142445Y-106382400D01*
X157211356Y-106382349D01*
X157309607Y-106382091D01*
X157399030Y-106381637D01*
X157477333Y-106381010D01*
X157542223Y-106380235D01*
X157591411Y-106379335D01*
X157622604Y-106378334D01*
X157633511Y-106377257D01*
X157632322Y-106374037D01*
X157622176Y-106356452D01*
X157605040Y-106330158D01*
X157596540Y-106317691D01*
X157587329Y-106303622D01*
X157579233Y-106289351D01*
X157572185Y-106273479D01*
X157566117Y-106254609D01*
X157560961Y-106231341D01*
X157556651Y-106202278D01*
X157553119Y-106166021D01*
X157550297Y-106121170D01*
X157548118Y-106066328D01*
X157546514Y-106000097D01*
X157545419Y-105921077D01*
X157544765Y-105827871D01*
X157544484Y-105719079D01*
X157544509Y-105593303D01*
X157544772Y-105449145D01*
X157545206Y-105285207D01*
X157545745Y-105100089D01*
X157546279Y-104921232D01*
X157546805Y-104762374D01*
X157547350Y-104623316D01*
X157547945Y-104502665D01*
X157548619Y-104399028D01*
X157549403Y-104311011D01*
X157550326Y-104237223D01*
X157551419Y-104176269D01*
X157552712Y-104126757D01*
X157554235Y-104087293D01*
X157556019Y-104056484D01*
X157558092Y-104032938D01*
X157560486Y-104015260D01*
X157563230Y-104002059D01*
X157566356Y-103991940D01*
X157569892Y-103983511D01*
X157573791Y-103975375D01*
X157593438Y-103938544D01*
X157612225Y-103908391D01*
X157613272Y-103906908D01*
X157627602Y-103884659D01*
X157633511Y-103871702D01*
X157632504Y-103871249D01*
X157615305Y-103869803D01*
X157578656Y-103868480D01*
X157524962Y-103867316D01*
X157456630Y-103866347D01*
X157376064Y-103865611D01*
X157285670Y-103865142D01*
X157187853Y-103864978D01*
X156742195Y-103864978D01*
X156739120Y-105041845D01*
X156736045Y-106218711D01*
X156709407Y-106277622D01*
X156697485Y-106302183D01*
X156680246Y-106332434D01*
X156667074Y-106349560D01*
X156659076Y-106357591D01*
X156651378Y-106372493D01*
X156359942Y-106372493D01*
X156359474Y-106280029D01*
X156359050Y-106164617D01*
X156358706Y-106034160D01*
X156358434Y-105887716D01*
X156358227Y-105724344D01*
X156358076Y-105543101D01*
X156357972Y-105343048D01*
X156357908Y-105123241D01*
X156357876Y-104882739D01*
X156357867Y-104620602D01*
X156357867Y-102429031D01*
X156396249Y-102390649D01*
X156423355Y-102366911D01*
X156450253Y-102355111D01*
X156486560Y-102352267D01*
X156538489Y-102352267D01*
X156538489Y-102440206D01*
X156540427Y-102490102D01*
X156559199Y-102600523D01*
X156596217Y-102701987D01*
X156649369Y-102793152D01*
X156716546Y-102872673D01*
X156795638Y-102939205D01*
X156884534Y-102991406D01*
X156981125Y-103027930D01*
X157083300Y-103047434D01*
X157188950Y-103048573D01*
X157295964Y-103030005D01*
X157402232Y-102990384D01*
X157499219Y-102932516D01*
X157584293Y-102857684D01*
X157653015Y-102769615D01*
X157703918Y-102670616D01*
X157735535Y-102562993D01*
X157746400Y-102449054D01*
X157746400Y-102352267D01*
X159366753Y-102352267D01*
X159577897Y-102352280D01*
X159782020Y-102352330D01*
X159965686Y-102352430D01*
X160129991Y-102352592D01*
X160276029Y-102352829D01*
X160404894Y-102353153D01*
X160517683Y-102353575D01*
X160615488Y-102354109D01*
X160699404Y-102354767D01*
X160770527Y-102355561D01*
X160829950Y-102356504D01*
X160878768Y-102357608D01*
X160918077Y-102358884D01*
X160948969Y-102360347D01*
X160972541Y-102362007D01*
X160989886Y-102363878D01*
X161002099Y-102365972D01*
X161010275Y-102368300D01*
X161015508Y-102370876D01*
X161021504Y-102374445D01*
X161028279Y-102377978D01*
X161034478Y-102381488D01*
X161040126Y-102385918D01*
X161045247Y-102392208D01*
X161049869Y-102401301D01*
X161054015Y-102414139D01*
X161057713Y-102431662D01*
X161060987Y-102454813D01*
X161063863Y-102484534D01*
X161066367Y-102521765D01*
X161068524Y-102567449D01*
X161070360Y-102622527D01*
X161071900Y-102687941D01*
X161073170Y-102764633D01*
X161074195Y-102853544D01*
X161075001Y-102955617D01*
X161075034Y-102961867D01*
X161075614Y-103071792D01*
G36*
X161075614Y-103071792D02*
G01*
X161076059Y-103203011D01*
X161076362Y-103350216D01*
X161076548Y-103514349D01*
X161076642Y-103696352D01*
X161076671Y-103897165D01*
X161076661Y-104117732D01*
X161076636Y-104358992D01*
X161076622Y-104621889D01*
X161076622Y-104664040D01*
X161076646Y-104924668D01*
X161076685Y-105163796D01*
X161076708Y-105382360D01*
X161076687Y-105581295D01*
X161076593Y-105761535D01*
X161076395Y-105924015D01*
X161076063Y-106069670D01*
X161075569Y-106199434D01*
X161074883Y-106314243D01*
X161073976Y-106415030D01*
X161072817Y-106502730D01*
X161071378Y-106578279D01*
X161069629Y-106642611D01*
X161067540Y-106696661D01*
X161065083Y-106741363D01*
X161062227Y-106777652D01*
X161058943Y-106806463D01*
X161055202Y-106828731D01*
X161050974Y-106845390D01*
X161046229Y-106857375D01*
X161040939Y-106865621D01*
X161035073Y-106871062D01*
X161028602Y-106874634D01*
X161021497Y-106877270D01*
X161013728Y-106879906D01*
X161005266Y-106883477D01*
X161000908Y-106885145D01*
X160992395Y-106887111D01*
X160979694Y-106888911D01*
X160961885Y-106890555D01*
X160938049Y-106892047D01*
X160907266Y-106893397D01*
X160868617Y-106894611D01*
X160821182Y-106895697D01*
X160764043Y-106896661D01*
X160696279Y-106897511D01*
X160616971Y-106898253D01*
X160525199Y-106898897D01*
X160420044Y-106899447D01*
X160300587Y-106899913D01*
X160165908Y-106900300D01*
X160015088Y-106900616D01*
X159847206Y-106900869D01*
X159661345Y-106901066D01*
X159456583Y-106901213D01*
X159232002Y-106901318D01*
X158986682Y-106901389D01*
X158719704Y-106901432D01*
X158681321Y-106901437D01*
X158415922Y-106901480D01*
X158172050Y-106901525D01*
X157948783Y-106901548D01*
X157745196Y-106901524D01*
X157560367Y-106901430D01*
X157393373Y-106901243D01*
X157243290Y-106900939D01*
X157109196Y-106900494D01*
X156990166Y-106899885D01*
X156885279Y-106899089D01*
X156793610Y-106898080D01*
X156714237Y-106896837D01*
X156646237Y-106895335D01*
X156588686Y-106893551D01*
X156540662Y-106891461D01*
X156501240Y-106889042D01*
X156469499Y-106886270D01*
X156444514Y-106883121D01*
X156425364Y-106879572D01*
X156411123Y-106875598D01*
X156400871Y-106871178D01*
X156393682Y-106866286D01*
X156388635Y-106860900D01*
X156384805Y-106854996D01*
X156381271Y-106848549D01*
X156377108Y-106841537D01*
X156376025Y-106839687D01*
X156373813Y-106834180D01*
X156371786Y-106825868D01*
X156369938Y-106813809D01*
X156368261Y-106797063D01*
X156366745Y-106774687D01*
X156365383Y-106745740D01*
X156364167Y-106709280D01*
X156363089Y-106664367D01*
X156362140Y-106610057D01*
X156361312Y-106545410D01*
X156360597Y-106469484D01*
X156359987Y-106381338D01*
X156359942Y-106372493D01*
X156651378Y-106372493D01*
X156655260Y-106373765D01*
X156678520Y-106375791D01*
X156720874Y-106377626D01*
X156780132Y-106379227D01*
X156854107Y-106380549D01*
X156940610Y-106381548D01*
X157037452Y-106382180D01*
X157142445Y-106382400D01*
X157840651Y-106382400D01*
X158995090Y-106382400D01*
X158994456Y-106306200D01*
X158995574Y-106264160D01*
X159001304Y-106228334D01*
X159013890Y-106190772D01*
X159035568Y-106142577D01*
X159038789Y-106135897D01*
X159064188Y-106086359D01*
X159090996Y-106038369D01*
X159113917Y-106001466D01*
X159118485Y-105994834D01*
X159140516Y-105963593D01*
X159172693Y-105918654D01*
X159213457Y-105862147D01*
X159261245Y-105796204D01*
X159314498Y-105722957D01*
X159371655Y-105644536D01*
X159431155Y-105563072D01*
X159491437Y-105480698D01*
X159550940Y-105399544D01*
X159608105Y-105321742D01*
X159661370Y-105249423D01*
X159709174Y-105184718D01*
X159749957Y-105129759D01*
X159782158Y-105086676D01*
X159804216Y-105057602D01*
X159814571Y-105044667D01*
X159819044Y-105040351D01*
X159823236Y-105038312D01*
X159826643Y-105040926D01*
X159829325Y-105049986D01*
X159831341Y-105067285D01*
X159832748Y-105094614D01*
X159833605Y-105133765D01*
X159833970Y-105186533D01*
X159833903Y-105254707D01*
X159833460Y-105340082D01*
X159832702Y-105444449D01*
X159831685Y-105569600D01*
X159831308Y-105614300D01*
X159830169Y-105735395D01*
X159828972Y-105836688D01*
X159827636Y-105920262D01*
X159826077Y-105988204D01*
X159824215Y-106042599D01*
X159821966Y-106085532D01*
X159819248Y-106119089D01*
X159815979Y-106145355D01*
X159812078Y-106166416D01*
X159807461Y-106184357D01*
X159799192Y-106210770D01*
X159775583Y-106272772D01*
X159749685Y-106325573D01*
X159724535Y-106362645D01*
X159723339Y-106364075D01*
X159721168Y-106368424D01*
X159723328Y-106372026D01*
X159731644Y-106374951D01*
X159747940Y-106377269D01*
X159774041Y-106379051D01*
X159811771Y-106380367D01*
X159862956Y-106381286D01*
X159929420Y-106381878D01*
X160012987Y-106382215D01*
X160115483Y-106382365D01*
X160238732Y-106382400D01*
X160770296Y-106382400D01*
X160731523Y-106324783D01*
X160725432Y-106315893D01*
X160714976Y-106301069D01*
X160705579Y-106287422D01*
X160697183Y-106273765D01*
X160689733Y-106258911D01*
X160683173Y-106241670D01*
X160677446Y-106220855D01*
X160672495Y-106195280D01*
X160668266Y-106163755D01*
X160664701Y-106125093D01*
X160661744Y-106078107D01*
X160659340Y-106021608D01*
X160657431Y-105954409D01*
X160655962Y-105875322D01*
X160654876Y-105783160D01*
X160654118Y-105676734D01*
X160653630Y-105554857D01*
X160653358Y-105416341D01*
X160653243Y-105259999D01*
X160653231Y-105084642D01*
X160653265Y-104889082D01*
X160653289Y-104672133D01*
X160653280Y-104549513D01*
X160653243Y-104344447D01*
X160653227Y-104160116D01*
X160653288Y-103995334D01*
X160653484Y-103848916D01*
X160653870Y-103719674D01*
X160654505Y-103606422D01*
X160655444Y-103507975D01*
X160656745Y-103423144D01*
X160658464Y-103350744D01*
X160660659Y-103289589D01*
X160663385Y-103238492D01*
X160666701Y-103196267D01*
X160670662Y-103161727D01*
X160675325Y-103133686D01*
X160680747Y-103110958D01*
X160686986Y-103092356D01*
X160694097Y-103076693D01*
X160702138Y-103062784D01*
X160711166Y-103049441D01*
X160721236Y-103035479D01*
X160732407Y-103019711D01*
X160772197Y-102961867D01*
X159712314Y-102961867D01*
X159750311Y-103024966D01*
X159764993Y-103050005D01*
X159779531Y-103077586D01*
X159791627Y-103105700D01*
X159801532Y-103136551D01*
X159809494Y-103172344D01*
X159815761Y-103215283D01*
X159820582Y-103267574D01*
X159824206Y-103331419D01*
X159826881Y-103409025D01*
X159828857Y-103502594D01*
X159830382Y-103614333D01*
X159831704Y-103746445D01*
X159832613Y-103866434D01*
X159833020Y-103983063D01*
X159832767Y-104078531D01*
X159831857Y-104152556D01*
X159830293Y-104204855D01*
X159828079Y-104235149D01*
X159825220Y-104243156D01*
X159822161Y-104239858D01*
X159804006Y-104218408D01*
X159774275Y-104181889D01*
X159734639Y-104132442D01*
X159686771Y-104072207D01*
X159632343Y-104003327D01*
X159573027Y-103927943D01*
X159510495Y-103848196D01*
X159446421Y-103766228D01*
X159382475Y-103684180D01*
X159320331Y-103604194D01*
X159261661Y-103528411D01*
X159208137Y-103458973D01*
X159161430Y-103398021D01*
X159123214Y-103347696D01*
X159095161Y-103310140D01*
X159078943Y-103287495D01*
X159033635Y-103215212D01*
X158993661Y-103135463D01*
X158972130Y-103067188D01*
X158968827Y-103009844D01*
X158974116Y-102961867D01*
X157842356Y-102962117D01*
X157881867Y-102992722D01*
X157891248Y-103000089D01*
X157954183Y-103054438D01*
X158022997Y-103122259D01*
X158099596Y-103205516D01*
X158185888Y-103306178D01*
X158203052Y-103326847D01*
X158243833Y-103376409D01*
X158293588Y-103437326D01*
X158350955Y-103507898D01*
X158414569Y-103586424D01*
X158483069Y-103671204D01*
X158555090Y-103760537D01*
X158629270Y-103852722D01*
X158644517Y-103871702D01*
X158704246Y-103946060D01*
X158778653Y-104038848D01*
X158851131Y-104129388D01*
X158920314Y-104215978D01*
X158984841Y-104296918D01*
X159043347Y-104370506D01*
X159094470Y-104435044D01*
X159136847Y-104488829D01*
X159169115Y-104530162D01*
X159189910Y-104557342D01*
X159197869Y-104568668D01*
X159196111Y-104572771D01*
X159183230Y-104593334D01*
X159158885Y-104629561D01*
X159124247Y-104679824D01*
X159080486Y-104742492D01*
X159028775Y-104815936D01*
X158970284Y-104898527D01*
X158906184Y-104988636D01*
X158837646Y-105084631D01*
X158765843Y-105184885D01*
X158691944Y-105287768D01*
X158617121Y-105391650D01*
X158542545Y-105494901D01*
X158469387Y-105595892D01*
X158398819Y-105692994D01*
X158332011Y-105784577D01*
X158270135Y-105869011D01*
X158214361Y-105944667D01*
X158165862Y-106009916D01*
X158125807Y-106063128D01*
X158095369Y-106102673D01*
X158074944Y-106128026D01*
X158028899Y-106182295D01*
X157978612Y-106238775D01*
X157931815Y-106288669D01*
X157840651Y-106382400D01*
X157142445Y-106382400D01*
X157211356Y-106382349D01*
X157309607Y-106382091D01*
X157399030Y-106381637D01*
X157477333Y-106381010D01*
X157542223Y-106380235D01*
X157591411Y-106379335D01*
X157622604Y-106378334D01*
X157633511Y-106377257D01*
X157632322Y-106374037D01*
X157622176Y-106356452D01*
X157605040Y-106330158D01*
X157596540Y-106317691D01*
X157587329Y-106303622D01*
X157579233Y-106289351D01*
X157572185Y-106273479D01*
X157566117Y-106254609D01*
X157560961Y-106231341D01*
X157556651Y-106202278D01*
X157553119Y-106166021D01*
X157550297Y-106121170D01*
X157548118Y-106066328D01*
X157546514Y-106000097D01*
X157545419Y-105921077D01*
X157544765Y-105827871D01*
X157544484Y-105719079D01*
X157544509Y-105593303D01*
X157544772Y-105449145D01*
X157545206Y-105285207D01*
X157545745Y-105100089D01*
X157546279Y-104921232D01*
X157546805Y-104762374D01*
X157547350Y-104623316D01*
X157547945Y-104502665D01*
X157548619Y-104399028D01*
X157549403Y-104311011D01*
X157550326Y-104237223D01*
X157551419Y-104176269D01*
X157552712Y-104126757D01*
X157554235Y-104087293D01*
X157556019Y-104056484D01*
X157558092Y-104032938D01*
X157560486Y-104015260D01*
X157563230Y-104002059D01*
X157566356Y-103991940D01*
X157569892Y-103983511D01*
X157573791Y-103975375D01*
X157593438Y-103938544D01*
X157612225Y-103908391D01*
X157613272Y-103906908D01*
X157627602Y-103884659D01*
X157633511Y-103871702D01*
X157632504Y-103871249D01*
X157615305Y-103869803D01*
X157578656Y-103868480D01*
X157524962Y-103867316D01*
X157456630Y-103866347D01*
X157376064Y-103865611D01*
X157285670Y-103865142D01*
X157187853Y-103864978D01*
X156742195Y-103864978D01*
X156739120Y-105041845D01*
X156736045Y-106218711D01*
X156709407Y-106277622D01*
X156697485Y-106302183D01*
X156680246Y-106332434D01*
X156667074Y-106349560D01*
X156659076Y-106357591D01*
X156651378Y-106372493D01*
X156359942Y-106372493D01*
X156359474Y-106280029D01*
X156359050Y-106164617D01*
X156358706Y-106034160D01*
X156358434Y-105887716D01*
X156358227Y-105724344D01*
X156358076Y-105543101D01*
X156357972Y-105343048D01*
X156357908Y-105123241D01*
X156357876Y-104882739D01*
X156357867Y-104620602D01*
X156357867Y-102429031D01*
X156396249Y-102390649D01*
X156423355Y-102366911D01*
X156450253Y-102355111D01*
X156486560Y-102352267D01*
X156538489Y-102352267D01*
X156538489Y-102440206D01*
X156540427Y-102490102D01*
X156559199Y-102600523D01*
X156596217Y-102701987D01*
X156649369Y-102793152D01*
X156716546Y-102872673D01*
X156795638Y-102939205D01*
X156884534Y-102991406D01*
X156981125Y-103027930D01*
X157083300Y-103047434D01*
X157188950Y-103048573D01*
X157295964Y-103030005D01*
X157402232Y-102990384D01*
X157499219Y-102932516D01*
X157584293Y-102857684D01*
X157653015Y-102769615D01*
X157703918Y-102670616D01*
X157735535Y-102562993D01*
X157746400Y-102449054D01*
X157746400Y-102352267D01*
X159366753Y-102352267D01*
X159577897Y-102352280D01*
X159782020Y-102352330D01*
X159965686Y-102352430D01*
X160129991Y-102352592D01*
X160276029Y-102352829D01*
X160404894Y-102353153D01*
X160517683Y-102353575D01*
X160615488Y-102354109D01*
X160699404Y-102354767D01*
X160770527Y-102355561D01*
X160829950Y-102356504D01*
X160878768Y-102357608D01*
X160918077Y-102358884D01*
X160948969Y-102360347D01*
X160972541Y-102362007D01*
X160989886Y-102363878D01*
X161002099Y-102365972D01*
X161010275Y-102368300D01*
X161015508Y-102370876D01*
X161021504Y-102374445D01*
X161028279Y-102377978D01*
X161034478Y-102381488D01*
X161040126Y-102385918D01*
X161045247Y-102392208D01*
X161049869Y-102401301D01*
X161054015Y-102414139D01*
X161057713Y-102431662D01*
X161060987Y-102454813D01*
X161063863Y-102484534D01*
X161066367Y-102521765D01*
X161068524Y-102567449D01*
X161070360Y-102622527D01*
X161071900Y-102687941D01*
X161073170Y-102764633D01*
X161074195Y-102853544D01*
X161075001Y-102955617D01*
X161075034Y-102961867D01*
X161075614Y-103071792D01*
G37*
%TD*%
M02*
