%TF.GenerationSoftware,KiCad,Pcbnew,8.0.7*%
%TF.CreationDate,2024-12-27T18:42:03+05:30*%
%TF.ProjectId,Project 1 LED torch,50726f6a-6563-4742-9031-204c45442074,1*%
%TF.SameCoordinates,Original*%
%TF.FileFunction,Legend,Top*%
%TF.FilePolarity,Positive*%
%FSLAX46Y46*%
G04 Gerber Fmt 4.6, Leading zero omitted, Abs format (unit mm)*
G04 Created by KiCad (PCBNEW 8.0.7) date 2024-12-27 18:42:03*
%MOMM*%
%LPD*%
G01*
G04 APERTURE LIST*
%ADD10C,0.100000*%
%ADD11C,0.150000*%
%ADD12C,0.120000*%
G04 APERTURE END LIST*
D10*
X118575312Y-101372419D02*
X118241979Y-100896228D01*
X118003884Y-101372419D02*
X118003884Y-100372419D01*
X118003884Y-100372419D02*
X118384836Y-100372419D01*
X118384836Y-100372419D02*
X118480074Y-100420038D01*
X118480074Y-100420038D02*
X118527693Y-100467657D01*
X118527693Y-100467657D02*
X118575312Y-100562895D01*
X118575312Y-100562895D02*
X118575312Y-100705752D01*
X118575312Y-100705752D02*
X118527693Y-100800990D01*
X118527693Y-100800990D02*
X118480074Y-100848609D01*
X118480074Y-100848609D02*
X118384836Y-100896228D01*
X118384836Y-100896228D02*
X118003884Y-100896228D01*
X119527693Y-101372419D02*
X118956265Y-101372419D01*
X119241979Y-101372419D02*
X119241979Y-100372419D01*
X119241979Y-100372419D02*
X119146741Y-100515276D01*
X119146741Y-100515276D02*
X119051503Y-100610514D01*
X119051503Y-100610514D02*
X118956265Y-100658133D01*
X112296115Y-106891466D02*
X111534211Y-106891466D01*
X104296115Y-106791466D02*
X103534211Y-106791466D01*
X103915163Y-107172419D02*
X103915163Y-106410514D01*
D11*
X107861905Y-103504819D02*
X107861905Y-102504819D01*
X107861905Y-102504819D02*
X108100000Y-102504819D01*
X108100000Y-102504819D02*
X108242857Y-102552438D01*
X108242857Y-102552438D02*
X108338095Y-102647676D01*
X108338095Y-102647676D02*
X108385714Y-102742914D01*
X108385714Y-102742914D02*
X108433333Y-102933390D01*
X108433333Y-102933390D02*
X108433333Y-103076247D01*
X108433333Y-103076247D02*
X108385714Y-103266723D01*
X108385714Y-103266723D02*
X108338095Y-103361961D01*
X108338095Y-103361961D02*
X108242857Y-103457200D01*
X108242857Y-103457200D02*
X108100000Y-103504819D01*
X108100000Y-103504819D02*
X107861905Y-103504819D01*
X109385714Y-103504819D02*
X108814286Y-103504819D01*
X109100000Y-103504819D02*
X109100000Y-102504819D01*
X109100000Y-102504819D02*
X109004762Y-102647676D01*
X109004762Y-102647676D02*
X108909524Y-102742914D01*
X108909524Y-102742914D02*
X108814286Y-102790533D01*
X107557142Y-111604819D02*
X107080952Y-111604819D01*
X107080952Y-111604819D02*
X107080952Y-110604819D01*
X107890476Y-111081009D02*
X108223809Y-111081009D01*
X108366666Y-111604819D02*
X107890476Y-111604819D01*
X107890476Y-111604819D02*
X107890476Y-110604819D01*
X107890476Y-110604819D02*
X108366666Y-110604819D01*
X108795238Y-111604819D02*
X108795238Y-110604819D01*
X108795238Y-110604819D02*
X109033333Y-110604819D01*
X109033333Y-110604819D02*
X109176190Y-110652438D01*
X109176190Y-110652438D02*
X109271428Y-110747676D01*
X109271428Y-110747676D02*
X109319047Y-110842914D01*
X109319047Y-110842914D02*
X109366666Y-111033390D01*
X109366666Y-111033390D02*
X109366666Y-111176247D01*
X109366666Y-111176247D02*
X109319047Y-111366723D01*
X109319047Y-111366723D02*
X109271428Y-111461961D01*
X109271428Y-111461961D02*
X109176190Y-111557200D01*
X109176190Y-111557200D02*
X109033333Y-111604819D01*
X109033333Y-111604819D02*
X108795238Y-111604819D01*
X128066667Y-99907200D02*
X128209524Y-99954819D01*
X128209524Y-99954819D02*
X128447619Y-99954819D01*
X128447619Y-99954819D02*
X128542857Y-99907200D01*
X128542857Y-99907200D02*
X128590476Y-99859580D01*
X128590476Y-99859580D02*
X128638095Y-99764342D01*
X128638095Y-99764342D02*
X128638095Y-99669104D01*
X128638095Y-99669104D02*
X128590476Y-99573866D01*
X128590476Y-99573866D02*
X128542857Y-99526247D01*
X128542857Y-99526247D02*
X128447619Y-99478628D01*
X128447619Y-99478628D02*
X128257143Y-99431009D01*
X128257143Y-99431009D02*
X128161905Y-99383390D01*
X128161905Y-99383390D02*
X128114286Y-99335771D01*
X128114286Y-99335771D02*
X128066667Y-99240533D01*
X128066667Y-99240533D02*
X128066667Y-99145295D01*
X128066667Y-99145295D02*
X128114286Y-99050057D01*
X128114286Y-99050057D02*
X128161905Y-99002438D01*
X128161905Y-99002438D02*
X128257143Y-98954819D01*
X128257143Y-98954819D02*
X128495238Y-98954819D01*
X128495238Y-98954819D02*
X128638095Y-99002438D01*
X128971429Y-98954819D02*
X129209524Y-99954819D01*
X129209524Y-99954819D02*
X129400000Y-99240533D01*
X129400000Y-99240533D02*
X129590476Y-99954819D01*
X129590476Y-99954819D02*
X129828572Y-98954819D01*
X130733333Y-99954819D02*
X130161905Y-99954819D01*
X130447619Y-99954819D02*
X130447619Y-98954819D01*
X130447619Y-98954819D02*
X130352381Y-99097676D01*
X130352381Y-99097676D02*
X130257143Y-99192914D01*
X130257143Y-99192914D02*
X130161905Y-99240533D01*
X154714285Y-99061009D02*
X154857142Y-99108628D01*
X154857142Y-99108628D02*
X154904761Y-99156247D01*
X154904761Y-99156247D02*
X154952380Y-99251485D01*
X154952380Y-99251485D02*
X154952380Y-99394342D01*
X154952380Y-99394342D02*
X154904761Y-99489580D01*
X154904761Y-99489580D02*
X154857142Y-99537200D01*
X154857142Y-99537200D02*
X154761904Y-99584819D01*
X154761904Y-99584819D02*
X154380952Y-99584819D01*
X154380952Y-99584819D02*
X154380952Y-98584819D01*
X154380952Y-98584819D02*
X154714285Y-98584819D01*
X154714285Y-98584819D02*
X154809523Y-98632438D01*
X154809523Y-98632438D02*
X154857142Y-98680057D01*
X154857142Y-98680057D02*
X154904761Y-98775295D01*
X154904761Y-98775295D02*
X154904761Y-98870533D01*
X154904761Y-98870533D02*
X154857142Y-98965771D01*
X154857142Y-98965771D02*
X154809523Y-99013390D01*
X154809523Y-99013390D02*
X154714285Y-99061009D01*
X154714285Y-99061009D02*
X154380952Y-99061009D01*
X155238095Y-98584819D02*
X155809523Y-98584819D01*
X155523809Y-99584819D02*
X155523809Y-98584819D01*
X156666666Y-99584819D02*
X156095238Y-99584819D01*
X156380952Y-99584819D02*
X156380952Y-98584819D01*
X156380952Y-98584819D02*
X156285714Y-98727676D01*
X156285714Y-98727676D02*
X156190476Y-98822914D01*
X156190476Y-98822914D02*
X156095238Y-98870533D01*
X152547618Y-116079009D02*
X152690475Y-116126628D01*
X152690475Y-116126628D02*
X152738094Y-116174247D01*
X152738094Y-116174247D02*
X152785713Y-116269485D01*
X152785713Y-116269485D02*
X152785713Y-116412342D01*
X152785713Y-116412342D02*
X152738094Y-116507580D01*
X152738094Y-116507580D02*
X152690475Y-116555200D01*
X152690475Y-116555200D02*
X152595237Y-116602819D01*
X152595237Y-116602819D02*
X152214285Y-116602819D01*
X152214285Y-116602819D02*
X152214285Y-115602819D01*
X152214285Y-115602819D02*
X152547618Y-115602819D01*
X152547618Y-115602819D02*
X152642856Y-115650438D01*
X152642856Y-115650438D02*
X152690475Y-115698057D01*
X152690475Y-115698057D02*
X152738094Y-115793295D01*
X152738094Y-115793295D02*
X152738094Y-115888533D01*
X152738094Y-115888533D02*
X152690475Y-115983771D01*
X152690475Y-115983771D02*
X152642856Y-116031390D01*
X152642856Y-116031390D02*
X152547618Y-116079009D01*
X152547618Y-116079009D02*
X152214285Y-116079009D01*
X153642856Y-116602819D02*
X153642856Y-116079009D01*
X153642856Y-116079009D02*
X153595237Y-115983771D01*
X153595237Y-115983771D02*
X153499999Y-115936152D01*
X153499999Y-115936152D02*
X153309523Y-115936152D01*
X153309523Y-115936152D02*
X153214285Y-115983771D01*
X153642856Y-116555200D02*
X153547618Y-116602819D01*
X153547618Y-116602819D02*
X153309523Y-116602819D01*
X153309523Y-116602819D02*
X153214285Y-116555200D01*
X153214285Y-116555200D02*
X153166666Y-116459961D01*
X153166666Y-116459961D02*
X153166666Y-116364723D01*
X153166666Y-116364723D02*
X153214285Y-116269485D01*
X153214285Y-116269485D02*
X153309523Y-116221866D01*
X153309523Y-116221866D02*
X153547618Y-116221866D01*
X153547618Y-116221866D02*
X153642856Y-116174247D01*
X153976190Y-115936152D02*
X154357142Y-115936152D01*
X154119047Y-115602819D02*
X154119047Y-116459961D01*
X154119047Y-116459961D02*
X154166666Y-116555200D01*
X154166666Y-116555200D02*
X154261904Y-116602819D01*
X154261904Y-116602819D02*
X154357142Y-116602819D01*
X155404762Y-115698057D02*
X155452381Y-115650438D01*
X155452381Y-115650438D02*
X155547619Y-115602819D01*
X155547619Y-115602819D02*
X155785714Y-115602819D01*
X155785714Y-115602819D02*
X155880952Y-115650438D01*
X155880952Y-115650438D02*
X155928571Y-115698057D01*
X155928571Y-115698057D02*
X155976190Y-115793295D01*
X155976190Y-115793295D02*
X155976190Y-115888533D01*
X155976190Y-115888533D02*
X155928571Y-116031390D01*
X155928571Y-116031390D02*
X155357143Y-116602819D01*
X155357143Y-116602819D02*
X155976190Y-116602819D01*
X156595238Y-115602819D02*
X156690476Y-115602819D01*
X156690476Y-115602819D02*
X156785714Y-115650438D01*
X156785714Y-115650438D02*
X156833333Y-115698057D01*
X156833333Y-115698057D02*
X156880952Y-115793295D01*
X156880952Y-115793295D02*
X156928571Y-115983771D01*
X156928571Y-115983771D02*
X156928571Y-116221866D01*
X156928571Y-116221866D02*
X156880952Y-116412342D01*
X156880952Y-116412342D02*
X156833333Y-116507580D01*
X156833333Y-116507580D02*
X156785714Y-116555200D01*
X156785714Y-116555200D02*
X156690476Y-116602819D01*
X156690476Y-116602819D02*
X156595238Y-116602819D01*
X156595238Y-116602819D02*
X156500000Y-116555200D01*
X156500000Y-116555200D02*
X156452381Y-116507580D01*
X156452381Y-116507580D02*
X156404762Y-116412342D01*
X156404762Y-116412342D02*
X156357143Y-116221866D01*
X156357143Y-116221866D02*
X156357143Y-115983771D01*
X156357143Y-115983771D02*
X156404762Y-115793295D01*
X156404762Y-115793295D02*
X156452381Y-115698057D01*
X156452381Y-115698057D02*
X156500000Y-115650438D01*
X156500000Y-115650438D02*
X156595238Y-115602819D01*
X157261905Y-115602819D02*
X157880952Y-115602819D01*
X157880952Y-115602819D02*
X157547619Y-115983771D01*
X157547619Y-115983771D02*
X157690476Y-115983771D01*
X157690476Y-115983771D02*
X157785714Y-116031390D01*
X157785714Y-116031390D02*
X157833333Y-116079009D01*
X157833333Y-116079009D02*
X157880952Y-116174247D01*
X157880952Y-116174247D02*
X157880952Y-116412342D01*
X157880952Y-116412342D02*
X157833333Y-116507580D01*
X157833333Y-116507580D02*
X157785714Y-116555200D01*
X157785714Y-116555200D02*
X157690476Y-116602819D01*
X157690476Y-116602819D02*
X157404762Y-116602819D01*
X157404762Y-116602819D02*
X157309524Y-116555200D01*
X157309524Y-116555200D02*
X157261905Y-116507580D01*
X158261905Y-115698057D02*
X158309524Y-115650438D01*
X158309524Y-115650438D02*
X158404762Y-115602819D01*
X158404762Y-115602819D02*
X158642857Y-115602819D01*
X158642857Y-115602819D02*
X158738095Y-115650438D01*
X158738095Y-115650438D02*
X158785714Y-115698057D01*
X158785714Y-115698057D02*
X158833333Y-115793295D01*
X158833333Y-115793295D02*
X158833333Y-115888533D01*
X158833333Y-115888533D02*
X158785714Y-116031390D01*
X158785714Y-116031390D02*
X158214286Y-116602819D01*
X158214286Y-116602819D02*
X158833333Y-116602819D01*
X154714285Y-106931009D02*
X154857142Y-106978628D01*
X154857142Y-106978628D02*
X154904761Y-107026247D01*
X154904761Y-107026247D02*
X154952380Y-107121485D01*
X154952380Y-107121485D02*
X154952380Y-107264342D01*
X154952380Y-107264342D02*
X154904761Y-107359580D01*
X154904761Y-107359580D02*
X154857142Y-107407200D01*
X154857142Y-107407200D02*
X154761904Y-107454819D01*
X154761904Y-107454819D02*
X154380952Y-107454819D01*
X154380952Y-107454819D02*
X154380952Y-106454819D01*
X154380952Y-106454819D02*
X154714285Y-106454819D01*
X154714285Y-106454819D02*
X154809523Y-106502438D01*
X154809523Y-106502438D02*
X154857142Y-106550057D01*
X154857142Y-106550057D02*
X154904761Y-106645295D01*
X154904761Y-106645295D02*
X154904761Y-106740533D01*
X154904761Y-106740533D02*
X154857142Y-106835771D01*
X154857142Y-106835771D02*
X154809523Y-106883390D01*
X154809523Y-106883390D02*
X154714285Y-106931009D01*
X154714285Y-106931009D02*
X154380952Y-106931009D01*
X155238095Y-106454819D02*
X155809523Y-106454819D01*
X155523809Y-107454819D02*
X155523809Y-106454819D01*
X156666666Y-107454819D02*
X156095238Y-107454819D01*
X156380952Y-107454819D02*
X156380952Y-106454819D01*
X156380952Y-106454819D02*
X156285714Y-106597676D01*
X156285714Y-106597676D02*
X156190476Y-106692914D01*
X156190476Y-106692914D02*
X156095238Y-106740533D01*
D12*
%TO.C,D1*%
X111255000Y-107000000D02*
G75*
G02*
X106255000Y-107000000I-2500000J0D01*
G01*
X106255000Y-107000000D02*
G75*
G02*
X111255000Y-107000000I2500000J0D01*
G01*
X111315000Y-108544830D02*
G75*
G02*
X105765000Y-107000048I-2560000J1544830D01*
G01*
X105765000Y-106999952D02*
G75*
G02*
X111315000Y-105455170I2990000J-48D01*
G01*
X111315000Y-108545000D02*
X111315000Y-105455000D01*
%TO.C,SW1*%
X123640000Y-100640000D02*
X123640000Y-103150000D01*
X123640000Y-100640000D02*
X135860000Y-100640000D01*
X123640000Y-105450000D02*
X123640000Y-108050000D01*
X123640000Y-110350000D02*
X123640000Y-112860000D01*
X135860000Y-100640000D02*
X135860000Y-103150000D01*
X135860000Y-105450000D02*
X135860000Y-108050000D01*
X135860000Y-110350000D02*
X135860000Y-112860000D01*
X135860000Y-112860000D02*
X123640000Y-112860000D01*
%TO.C,BT1*%
X141190000Y-103140000D02*
X144808000Y-103140000D01*
X141190000Y-104850000D02*
X141190000Y-103140000D01*
X141190000Y-108650000D02*
X141190000Y-110360000D01*
X144808000Y-110360000D02*
X141190000Y-110360000D01*
X147652700Y-98640000D02*
X151640000Y-98640000D01*
X153840000Y-100840000D02*
X151640000Y-98640000D01*
X153840000Y-100840000D02*
X157160000Y-100840000D01*
X157160000Y-100840000D02*
X159360000Y-98640000D01*
X159360000Y-98640000D02*
X163347300Y-98640000D01*
X163347300Y-114860000D02*
X147652700Y-114860000D01*
X166192000Y-103140000D02*
X169810000Y-103140000D01*
X169810000Y-104850000D02*
X169810000Y-103140000D01*
X169810000Y-108650000D02*
X169810000Y-110360000D01*
X169810000Y-110360000D02*
X166192000Y-110360000D01*
X144808000Y-103140000D02*
G75*
G02*
X147654629Y-98638211I10692020J-3610012D01*
G01*
X147654629Y-114861789D02*
G75*
G02*
X144808000Y-110360000I7845371J8111789D01*
G01*
X163345371Y-98638211D02*
G75*
G02*
X166192000Y-103140000I-7845366J-8111785D01*
G01*
X166192000Y-110360000D02*
G75*
G02*
X163345372Y-114861790I-10692020J3610010D01*
G01*
%TO.C,R1*%
X117380000Y-103480000D02*
X117380000Y-110020000D01*
X117380000Y-110020000D02*
X117710000Y-110020000D01*
X117710000Y-103480000D02*
X117380000Y-103480000D01*
X119790000Y-103480000D02*
X120120000Y-103480000D01*
X120120000Y-103480000D02*
X120120000Y-110020000D01*
X120120000Y-110020000D02*
X119790000Y-110020000D01*
%TD*%
M02*
